SplineFontDB: 3.0
FontName: Rokkitt
FullName: Rokkitt
FamilyName: Rokkitt
Weight: Book
Copyright: Copyright (c) 2011 by vernon adams. All rights reserved. with\nReserved Font Names "Tienne" and "Tienne Regular". This\nFont Software is licensed under the SIL Open Font License, Version\n1.1. This license is available with a FAQ at:\nhttp://scripts.sil.org/OFL
Version: 1.000
ItalicAngle: 0
UnderlinePosition: -103
UnderlineWidth: 102
Ascent: 1638
Descent: 410
sfntRevision: 0x00010000
LayerCount: 2
Layer: 0 1 "Back"  1
Layer: 1 1 "Fore"  0
NeedsXUIDChange: 1
XUID: [1021 118 1023546858 3479185]
FSType: 256
OS2Version: 3
OS2_WeightWidthSlopeOnly: 0
OS2_UseTypoMetrics: 1
CreationTime: 1311364058
ModificationTime: 1318458470
PfmFamily: 17
TTFWeight: 400
TTFWidth: 5
LineGap: 0
VLineGap: 0
Panose: 2 0 5 3 5 0 0 2 0 3
OS2TypoAscent: 35
OS2TypoAOffset: 1
OS2TypoDescent: -247
OS2TypoDOffset: 1
OS2TypoLinegap: 0
OS2WinAscent: 55
OS2WinAOffset: 1
OS2WinDescent: 37
OS2WinDOffset: 1
HheadAscent: 55
HheadAOffset: 1
HheadDescent: -39
HheadDOffset: 1
OS2SubXSize: 2757
OS2SubYSize: 2546
OS2SubXOff: 0
OS2SubYOff: 356
OS2SupXSize: 2757
OS2SupYSize: 2546
OS2SupXOff: 0
OS2SupYOff: 1548
OS2StrikeYSize: 209
OS2StrikeYPos: 1049
OS2Vendor: 'newt'
OS2CodePages: 00000001.00000000
OS2UnicodeRanges: 800000ef.4000204b.00000000.00000000
DEI: 91125
ShortTable: maxp 16
  1
  0
  328
  65
  5
  64
  4
  1
  0
  0
  0
  0
  0
  0
  2
  1
EndShort
LangName: 1033 "" "" "Regular" "vernonadams: Rokkitt: 2011" "" "Version 1.000" "" "Rokkitt is a trademark of vernon adams." "vernon adams" "vernon adams" "Copyright (c) 2011 by vernon adams. All rights reserved. with+AA0A-Reserved Font Names +ACIA-Tienne+ACIA and +ACIA-Tienne Regular+ACIA. This+AA0A-Font Software is licensed under the SIL Open Font License, Version+AA0A-1.1. This license is available with a FAQ at:+AA0A-http://scripts.sil.org/OFL" "" "" "" "http://scripts.sil.org/OFL" "" "" "" "Rokkitt" 
GaspTable: 1 65535 15 0
Encoding: UnicodeBmp
Compacted: 1

StartChar: exclam
Encoding: 33 33 23
Width: 485
Flags: W
LayerCount: 2
Fore
SplineSet
153 854 m 1,0,-1
 153 1218 l 1,1,-1
 332 1218 l 1,2,-1
 332 854 l 1,3,-1
 288 337 l 1,4,-1
 197 337 l 1,5,-1
 153 854 l 1,0,-1
132 220 m 1,6,-1
 353 220 l 1,7,-1
 353 0 l 1,8,-1
 132 0 l 1,9,-1
 132 220 l 1,6,-1
EndSplineSet
EndChar

StartChar: quotedbl
Encoding: 34 34 24
Width: 692
Flags: W
LayerCount: 2
Fore
SplineSet
579 786 m 1,0,-1
 444 786 l 1,1,-1
 397 1218 l 1,2,-1
 623 1218 l 1,3,-1
 579 786 l 1,0,-1
243 786 m 1,4,-1
 108 786 l 1,5,-1
 61 1218 l 1,6,-1
 287 1218 l 1,7,-1
 243 786 l 1,4,-1
EndSplineSet
EndChar

StartChar: numbersign
Encoding: 35 35 25
Width: 1233
Flags: W
LayerCount: 2
Fore
SplineSet
245 0 m 1,0,-1
 279 346 l 1,1,-1
 94 346 l 1,2,-1
 106 460 l 1,3,-1
 295 460 l 1,4,-1
 330 762 l 1,5,-1
 114 762 l 1,6,-1
 127 878 l 1,7,-1
 346 878 l 1,8,-1
 382 1218 l 1,9,-1
 510 1218 l 1,10,-1
 474 878 l 1,11,-1
 812 878 l 1,12,-1
 852 1218 l 1,13,-1
 980 1218 l 1,14,-1
 941 878 l 1,15,-1
 1146 878 l 1,16,-1
 1134 762 l 1,17,-1
 925 762 l 1,18,-1
 894 460 l 1,19,-1
 1125 460 l 1,20,-1
 1113 346 l 1,21,-1
 878 346 l 1,22,-1
 841 0 l 1,23,-1
 716 0 l 1,24,-1
 748 346 l 1,25,-1
 408 346 l 1,26,-1
 371 0 l 1,27,-1
 245 0 l 1,0,-1
424 460 m 1,28,-1
 764 460 l 1,29,-1
 796 762 l 1,30,-1
 457 762 l 1,31,-1
 424 460 l 1,28,-1
EndSplineSet
EndChar

StartChar: dollar
Encoding: 36 36 26
Width: 978
Flags: W
LayerCount: 2
Fore
SplineSet
564 688 m 1,0,1
 946 607 946 607 946 318 c 0,2,3
 946 176 946 176 839 81 c 128,-1,4
 732 -14 732 -14 564 -18 c 1,5,-1
 564 -149 l 1,6,-1
 427 -149 l 1,7,-1
 427 -4 l 1,8,9
 324 19 324 19 240 90 c 1,10,-1
 240 0 l 1,11,-1
 100 0 l 1,12,-1
 100 402 l 1,13,-1
 240 402 l 1,14,-1
 240 282 l 1,15,16
 319 173 319 173 427 138 c 1,17,-1
 427 553 l 1,18,19
 268 589 268 589 180 664 c 128,-1,20
 92 739 92 739 92 888.5 c 128,-1,21
 92 1038 92 1038 185 1121.5 c 128,-1,22
 278 1205 278 1205 427 1216 c 1,23,-1
 427 1357 l 1,24,-1
 564 1357 l 1,25,-1
 564 1207 l 1,26,27
 661 1184 661 1184 742 1122 c 1,28,-1
 742 1199 l 1,29,-1
 882 1199 l 1,30,-1
 882 859 l 1,31,-1
 742 859 l 1,32,-1
 742 944 l 1,33,34
 667 1047 667 1047 564 1068 c 1,35,-1
 564 688 l 1,0,1
706 456.5 m 0,36,37
 668 489 668 489 564 519 c 1,38,-1
 564 122 l 1,39,40
 710 131 710 131 761.429682825 248.053560742 c 128,-1,41
 812.859365649 365.107121484 812.859365649 365.107121484 706 456.5 c 0,36,37
427 1071 m 1,42,43
 254 1045.44318182 254 1045.44318182 254 897 c 0,44,45
 254 774.488095238 254 774.488095238 427 723 c 1,46,-1
 427 1071 l 1,42,43
EndSplineSet
EndChar

StartChar: percent
Encoding: 37 37 27
Width: 1642
Flags: W
LayerCount: 2
Fore
SplineSet
339 579 m 0,0,1
 69 579 69 579 69 934 c 0,2,3
 69 1056 69 1056 148.5 1136.5 c 128,-1,4
 228 1217 228 1217 338.5 1217 c 128,-1,5
 449 1217 449 1217 529 1136.5 c 128,-1,6
 609 1056 609 1056 609 897.5 c 128,-1,7
 609 739 609 739 530 659 c 128,-1,8
 451 579 451 579 339 579 c 0,0,1
339 686 m 0,9,10
 465 686 465 686 465 924 c 0,11,12
 465 1058 465 1058 385 1096 c 0,13,14
 337 1118 337 1118 304 1102 c 0,15,16
 213 1059 213 1059 213.5 898.5 c 128,-1,17
 214 738 214 738 293 698 c 0,18,19
 316 686 316 686 339 686 c 0,9,10
1272 1244 m 1,20,-1
 1335 1192 l 1,21,-1
 355 -52 l 1,22,-1
 284 0 l 1,23,-1
 1272 1244 l 1,20,-1
1501 537.5 m 128,-1,25
 1581 457 1581 457 1581 298.5 c 128,-1,26
 1581 140 1581 140 1502 60 c 128,-1,27
 1423 -20 1423 -20 1309 -20 c 0,28,29
 1042 -20 1042 -20 1039 335 c 0,30,31
 1038 457 1038 457 1117.5 537.5 c 128,-1,32
 1197 618 1197 618 1309 618 c 256,33,24
 1421 618 1421 618 1501 537.5 c 128,-1,25
1308 87 m 0,34,35
 1435 88 1435 88 1435 326 c 0,36,37
 1435 460 1435 460 1355 497 c 0,38,39
 1307 519 1307 519 1274 503 c 0,40,41
 1184 460 1184 460 1184 299.5 c 128,-1,42
 1184 139 1184 139 1263 99 c 0,43,44
 1285 87 1285 87 1308 87 c 0,34,35
EndSplineSet
EndChar

StartChar: ampersand
Encoding: 38 38 28
Width: 1249
Flags: W
LayerCount: 2
Fore
SplineSet
846 967 m 0,0,1
 846 757 846 757 589 646 c 1,2,-1
 838 345 l 1,3,4
 917 453 917 453 950 606 c 1,5,-1
 1189 606 l 1,6,-1
 1189 474 l 1,7,-1
 1055 474 l 1,8,9
 1003 317 1003 317 921 232 c 1,10,-1
 997 130 l 1,11,-1
 1189 130 l 1,12,-1
 1189 0 l 1,13,-1
 918 0 l 1,14,-1
 829 120 l 1,15,16
 655 -20 655 -20 474.5 -20 c 128,-1,17
 294 -20 294 -20 176 82.5 c 128,-1,18
 58 185 58 185 58 338 c 0,19,20
 58 581 58 581 376 697 c 1,21,22
 255 852 255 852 255 959 c 128,-1,23
 255 1066 255 1066 342.5 1142 c 128,-1,24
 430 1218 430 1218 553.5 1218.5 c 128,-1,25
 677 1219 677 1219 761.5 1146.5 c 128,-1,26
 846 1074 846 1074 846 967 c 0,0,1
456 596 m 1,27,28
 218 513 218 513 218 348 c 0,29,30
 218 256 218 256 294 188.5 c 128,-1,31
 370 121 370 121 500.5 121 c 128,-1,32
 631 121 631 121 749 228 c 1,33,-1
 456 596 l 1,27,28
514 749 m 1,34,35
 706 848.918367347 706 848.918367347 706 967.959183673 c 128,-1,36
 706 1087 706 1087 553 1087 c 0,37,38
 486 1087 486 1087 443 1055.5 c 128,-1,39
 400 1024 400 1024 400 972.5 c 128,-1,40
 400 921 400 921 429 872.5 c 128,-1,41
 458 824 458 824 514 749 c 1,34,35
EndSplineSet
EndChar

StartChar: quotesingle
Encoding: 39 39 29
Width: 350
Flags: W
LayerCount: 2
Fore
SplineSet
252 786 m 1,0,-1
 116 786 l 1,1,-1
 70 1218 l 1,2,-1
 295 1218 l 1,3,-1
 252 786 l 1,0,-1
EndSplineSet
EndChar

StartChar: parenleft
Encoding: 40 40 30
Width: 543
Flags: W
LayerCount: 2
Fore
SplineSet
495 1078 m 1,0,1
 203 904 203 904 203 536 c 128,-1,2
 203 168 203 168 495 -1 c 1,3,-1
 495 -137 l 1,4,5
 175 -6 175 -6 72 297 c 0,6,7
 35 406 35 406 35 539 c 0,8,9
 35 789 35 789 161 957 c 128,-1,10
 287 1125 287 1125 495 1212 c 1,11,-1
 495 1078 l 1,0,1
EndSplineSet
EndChar

StartChar: parenright
Encoding: 41 41 31
Width: 543
Flags: W
LayerCount: 2
Fore
SplineSet
35 -1 m 1,0,1
 328 168 328 168 328 536 c 128,-1,2
 328 904 328 904 35 1078 c 1,3,-1
 35 1212 l 1,4,5
 358 1077 358 1077 459 779 c 0,6,7
 495 672 495 672 495 539 c 0,8,9
 495 287 495 287 368 117 c 128,-1,10
 241 -53 241 -53 35 -137 c 1,11,-1
 35 -1 l 1,0,1
EndSplineSet
EndChar

StartChar: asterisk
Encoding: 42 42 32
Width: 953
Flags: W
LayerCount: 2
Fore
SplineSet
293 365 m 1,0,-1
 147 468 l 1,1,-1
 246 605 l 1,2,-1
 427 758 l 1,3,-1
 190 773 l 1,4,-1
 33 829 l 1,5,-1
 85 998 l 1,6,-1
 246 945 l 1,7,-1
 454 814 l 1,8,-1
 394 1054 l 1,9,-1
 394 1218 l 1,10,-1
 570 1218 l 1,11,-1
 570 1054 l 1,12,-1
 508 814 l 1,13,-1
 716 945 l 1,14,-1
 878 998 l 1,15,-1
 930 829 l 1,16,-1
 774 773 l 1,17,-1
 536 758 l 1,18,-1
 716 605 l 1,19,-1
 814 468 l 1,20,-1
 670 365 l 1,21,-1
 570 502 l 1,22,-1
 482 726 l 1,23,-1
 394 502 l 1,24,-1
 293 365 l 1,0,-1
EndSplineSet
EndChar

StartChar: plus
Encoding: 43 43 33
Width: 1089
Flags: W
LayerCount: 2
Fore
SplineSet
608 626 m 1,0,-1
 1030 626 l 1,1,-1
 1030 504 l 1,2,-1
 608 504 l 1,3,-1
 608 97 l 1,4,-1
 479 97 l 1,5,-1
 479 504 l 1,6,-1
 59 504 l 1,7,-1
 59 626 l 1,8,-1
 479 626 l 1,9,-1
 479 1034 l 1,10,-1
 608 1034 l 1,11,-1
 608 626 l 1,0,-1
EndSplineSet
EndChar

StartChar: comma
Encoding: 44 44 34
Width: 431
Flags: W
LayerCount: 2
Fore
SplineSet
326 219 m 1,0,-1
 326 0 l 1,1,2
 327 -187 327 -187 202 -231 c 0,3,4
 156 -248 156 -248 89 -246 c 1,5,-1
 89 -156 l 1,6,7
 161 -141 161 -141 188 -107 c 128,-1,8
 215 -73 215 -73 215 0 c 1,9,-1
 89 0 l 1,10,-1
 89 219 l 1,11,-1
 326 219 l 1,0,-1
EndSplineSet
EndChar

StartChar: hyphen
Encoding: 45 45 35
Width: 748
Flags: W
LayerCount: 2
Fore
SplineSet
105 503 m 1,0,-1
 643 503 l 1,1,-1
 643 354 l 1,2,-1
 105 354 l 1,3,-1
 105 503 l 1,0,-1
EndSplineSet
EndChar

StartChar: period
Encoding: 46 46 36
Width: 431
Flags: W
LayerCount: 2
Fore
SplineSet
326 219 m 1,0,-1
 326 0 l 1,1,-1
 89 0 l 1,2,-1
 89 219 l 1,3,-1
 326 219 l 1,0,-1
EndSplineSet
EndChar

StartChar: slash
Encoding: 47 47 37
Width: 825
Flags: W
LayerCount: 2
Fore
SplineSet
586 1218 m 1,0,-1
 720 1218 l 1,1,-1
 268 -19 l 1,2,-1
 134 -19 l 1,3,-1
 586 1218 l 1,0,-1
EndSplineSet
EndChar

StartChar: zero
Encoding: 48 48 38
Width: 1044
Flags: W
LayerCount: 2
Fore
SplineSet
713 26 m 0,0,1
 632 -19 632 -19 522 -19 c 0,2,3
 308 -19 308 -19 199 146.5 c 128,-1,4
 90 312 90 312 90 600 c 0,5,6
 90 1041 90 1041 330 1173 c 0,7,8
 412 1218 412 1218 522 1218 c 0,9,10
 737 1218 737 1218 845.5 1052.5 c 128,-1,11
 954 887 954 887 954 600 c 0,12,13
 953 157 953 157 713 26 c 0,0,1
251 599 m 0,14,15
 251 231 251 231 392 139 c 1,16,17
 445 106 445 106 518 105 c 1,18,19
 664 105 664 105 729.5 222.5 c 128,-1,20
 795 340 795 340 794.5 598 c 128,-1,21
 794 856 794 856 728 974.5 c 128,-1,22
 662 1093 662 1093 521 1093 c 0,23,24
 307 1093 307 1093 264 805 c 0,25,26
 251 713 251 713 251 599 c 0,14,15
EndSplineSet
EndChar

StartChar: one
Encoding: 49 49 39
Width: 607
Flags: W
LayerCount: 2
Fore
SplineSet
555 121 m 1,0,-1
 555 0 l 1,1,-1
 68 0 l 1,2,-1
 68 121 l 1,3,-1
 240 121 l 1,4,-1
 240 1078 l 1,5,-1
 59 1078 l 1,6,-1
 59 1199 l 1,7,-1
 395 1199 l 1,8,-1
 395 121 l 1,9,-1
 555 121 l 1,0,-1
EndSplineSet
EndChar

StartChar: two
Encoding: 50 50 40
Width: 973
Flags: W
LayerCount: 2
Fore
SplineSet
64 0 m 1,0,1
 64 268 64 268 285 460 c 0,2,3
 332 500 332 500 456.5 590.5 c 128,-1,4
 581 681 581 681 637 746 c 128,-1,5
 693 811 693 811 693 894.5 c 128,-1,6
 693 978 693 978 638.5 1028 c 128,-1,7
 584 1078 584 1078 466.5 1079 c 128,-1,8
 349 1080 349 1080 298.5 1009 c 128,-1,9
 248 938 248 938 249 774 c 1,10,-1
 99 774 l 1,11,12
 99 1002 99 1002 192 1110 c 128,-1,13
 285 1218 285 1218 480.5 1218 c 128,-1,14
 676 1218 676 1218 770.5 1120 c 128,-1,15
 865 1022 865 1022 865 872.5 c 128,-1,16
 865 723 865 723 697 583 c 0,17,18
 642 538 642 538 531 457 c 128,-1,19
 420 376 420 376 339 301 c 128,-1,20
 258 226 258 226 237 121 c 1,21,-1
 728 121 l 1,22,-1
 728 393 l 1,23,-1
 860 393 l 1,24,-1
 860 0 l 1,25,-1
 64 0 l 1,0,1
EndSplineSet
EndChar

StartChar: three
Encoding: 51 51 41
Width: 991
Flags: W
LayerCount: 2
Fore
SplineSet
696 873.297297297 m 0,0,1
 696 1081.13392857 696 1081.13392857 472.667878662 1079.13989177 c 128,-1,2
 249.335757324 1077.14585498 249.335757324 1077.14585498 236 886 c 1,3,-1
 82 887 l 1,4,5
 92 1123 92 1123 304 1194 c 0,6,7
 374 1217 374 1217 466 1217 c 0,8,9
 648 1218 648 1218 752 1133 c 128,-1,10
 856 1048 856 1048 856 899 c 0,11,12
 856 684 856 684 653 626 c 1,13,14
 836 592 836 592 888 440 c 1,15,16
 932 317 932 317 887 223 c 0,17,18
 771.75892349 -17.7258042659 771.75892349 -17.7258042659 467.5 -18.5 c 0,19,20
 271 -19 271 -19 162 77.5 c 128,-1,21
 53 174 53 174 53 360 c 1,22,-1
 206 360 l 1,23,24
 226.427350427 121 226.427350427 121 461 121 c 0,25,26
 736 121 736 121 736 341 c 0,27,28
 736 553 736 553 356 553 c 1,29,-1
 356 691 l 1,30,31
 541 691 541 691 596.5 719.5 c 0,32,33
 696 770.594594595 696 770.594594595 696 873.297297297 c 0,0,1
EndSplineSet
EndChar

StartChar: four
Encoding: 52 52 42
Width: 910
Flags: W
LayerCount: 2
Fore
SplineSet
805 121 m 1,0,-1
 805 0 l 1,1,-1
 332 0 l 1,2,-1
 332 121 l 1,3,-1
 502 121 l 1,4,-1
 502 328 l 1,5,-1
 25 328 l 1,6,-1
 25 453 l 1,7,-1
 506 1199 l 1,8,-1
 650 1199 l 1,9,-1
 650 453 l 1,10,-1
 848 453 l 1,11,-1
 848 328 l 1,12,-1
 650 328 l 1,13,-1
 650 121 l 1,14,-1
 805 121 l 1,0,-1
502 453 m 1,15,-1
 502 985 l 1,16,-1
 175 453 l 1,17,-1
 502 453 l 1,15,-1
EndSplineSet
EndChar

StartChar: five
Encoding: 53 53 43
Width: 985
Flags: W
LayerCount: 2
Fore
SplineSet
244 343 m 1,0,1
 285.818181818 113 285.818181818 113 501 113 c 0,2,3
 613 113 613 113 678 186.5 c 128,-1,4
 743 260 743 260 742.5 384 c 128,-1,5
 742 508 742 508 674.5 579 c 128,-1,6
 607 650 607 650 486 650 c 128,-1,7
 365 650 365 650 248 532 c 1,8,-1
 161 579 l 1,9,-1
 161 1199 l 1,10,-1
 832 1199 l 1,11,-1
 832 953 l 1,12,-1
 688 953 l 1,13,-1
 688 1078 l 1,14,-1
 294 1078 l 1,15,16
 283.866666667 955.133333333 283.866666667 955.133333333 264 677 c 1,17,18
 348 795 348 795 522.5 795 c 128,-1,19
 697 795 697 795 803 678.5 c 128,-1,20
 909 562 909 562 908 383 c 128,-1,21
 907 204 907 204 801 92.5 c 128,-1,22
 695 -19 695 -19 504 -19 c 128,-1,23
 313 -19 313 -19 210.5 76 c 128,-1,24
 108 171 108 171 96 342 c 1,25,-1
 244 343 l 1,0,1
EndSplineSet
EndChar

StartChar: six
Encoding: 54 54 44
Width: 985
Flags: W
LayerCount: 2
Fore
SplineSet
252 529 m 1,0,1
 280.417910448 121 280.417910448 121 506.5 121 c 0,2,3
 626 121 626 121 688.5 192 c 128,-1,4
 751 263 751 263 751 376 c 0,5,6
 751 543 751 543 622 598 c 0,7,8
 580 616 580 616 523 616 c 128,-1,9
 466 616 466 616 385.5 593 c 128,-1,10
 305 570 305 570 252 529 c 1,0,1
245 665 m 1,11,12
 352 752 352 752 528.5 751.5 c 128,-1,13
 705 751 705 751 803.5 647.5 c 128,-1,14
 902 544 902 544 902 377 c 128,-1,15
 902 210 902 210 799 95.5 c 128,-1,16
 696 -19 696 -19 518 -19 c 0,17,18
 202 -19 202 -19 116 335 c 0,19,20
 89 449 89 449 89 593 c 0,21,22
 88 886 88 886 196.5 1052.5 c 128,-1,23
 305 1219 305 1219 491.5 1218.5 c 128,-1,24
 678 1218 678 1218 777.5 1125 c 128,-1,25
 877 1032 877 1032 881 882 c 1,26,-1
 738 882 l 1,27,28
 728 972 728 972 668 1029.5 c 128,-1,29
 608 1087 608 1087 536 1087 c 0,30,31
 396 1087 396 1087 320 978 c 1,32,33
 245 867 245 867 245 665 c 1,11,12
EndSplineSet
EndChar

StartChar: seven
Encoding: 55 55 45
Width: 852
Flags: W
LayerCount: 2
Fore
SplineSet
657 0 m 1,0,-1
 126 0 l 1,1,-1
 126 121 l 1,2,-1
 305 121 l 1,3,4
 305 541 305 541 522 887 c 0,5,6
 589 993 589 993 667 1077 c 1,7,-1
 196 1077 l 1,8,-1
 196 894 l 1,9,-1
 53 894 l 1,10,-1
 53 1199 l 1,11,-1
 841 1199 l 1,12,-1
 841 1066 l 1,13,14
 468 687.671428571 468 687.671428571 468 121 c 1,15,-1
 657 121 l 1,16,-1
 657 0 l 1,0,-1
EndSplineSet
EndChar

StartChar: eight
Encoding: 56 56 46
Width: 1047
Flags: W
LayerCount: 2
Fore
SplineSet
79 328 m 0,0,1
 79 562.537190083 79 562.537190083 315 623 c 1,2,3
 113 699 113 699 113 902 c 0,4,5
 113 1042 113 1042 223.5 1129.5 c 128,-1,6
 334 1217 334 1217 519 1217 c 128,-1,7
 704 1217 704 1217 814.5 1129.5 c 128,-1,8
 925 1042 925 1042 925 902 c 0,9,10
 925 700.127272727 925 700.127272727 723 623 c 1,11,12
 842 592 842 592 901 513 c 1,13,14
 959 433 959 433 959 341 c 0,15,16
 959 172 959 172 838 76.5 c 128,-1,17
 717 -19 717 -19 518.5 -19 c 128,-1,18
 320 -19 320 -19 199.5 76.5 c 128,-1,19
 79 172 79 172 79 328 c 0,0,1
519 554 m 256,20,21
 385 554 385 554 318 496 c 128,-1,22
 251 438 251 438 251 339.5 c 128,-1,23
 251 241 251 241 325 181 c 128,-1,24
 399 121 399 121 519 121 c 256,25,26
 639 121 639 121 713 181 c 128,-1,27
 787 241 787 241 787 339.5 c 128,-1,28
 787 438 787 438 720 496 c 128,-1,29
 653 554 653 554 519 554 c 256,20,21
699.5 1027.5 m 128,-1,31
 635 1078 635 1078 518.5 1078 c 128,-1,32
 402 1078 402 1078 338 1027.5 c 128,-1,33
 274 977 274 977 274.5 890 c 128,-1,34
 275 803 275 803 343 748 c 128,-1,35
 411 693 411 693 519 685 c 1,36,37
 686 695 686 695 746 809 c 0,38,39
 764 844 764 844 764 910.5 c 128,-1,30
 764 977 764 977 699.5 1027.5 c 128,-1,31
EndSplineSet
EndChar

StartChar: nine
Encoding: 57 57 47
Width: 987
Flags: W
LayerCount: 2
Fore
SplineSet
731 722 m 1,0,1
 705 991 705 991 580 1055 c 0,2,3
 535 1077 535 1077 446 1077 c 128,-1,4
 357 1077 357 1077 294.5 1006.5 c 128,-1,5
 232 936 232 936 232 801 c 128,-1,6
 232 666 232 666 347 618.5 c 128,-1,7
 462 571 462 571 570 616 c 128,-1,8
 678 661 678 661 731 722 c 1,0,1
737 555 m 1,9,10
 629 447 629 447 453.5 447 c 128,-1,11
 278 447 278 447 179.5 550.5 c 128,-1,12
 81 654 81 654 81 822.5 c 128,-1,13
 81 991 81 991 183.5 1104.5 c 128,-1,14
 286 1218 286 1218 481.5 1218 c 128,-1,15
 677 1218 677 1218 785.5 1060 c 128,-1,16
 894 902 894 902 894 605 c 0,17,18
 894 156 894 156 655 25 c 0,19,20
 574 -19 574 -19 479 -19 c 0,21,22
 305 -19 305 -19 205.5 74 c 128,-1,23
 106 167 106 167 102 317 c 1,24,-1
 244 317 l 1,25,26
 258 230 258 230 322 175 c 1,27,28
 411 126 411 126 460 121 c 1,29,30
 737 121 737 121 737 555 c 1,9,10
EndSplineSet
EndChar

StartChar: colon
Encoding: 58 58 48
Width: 431
Flags: W
LayerCount: 2
Fore
SplineSet
333 219 m 1,0,-1
 333 0 l 1,1,-1
 97 0 l 1,2,-1
 97 219 l 1,3,-1
 333 219 l 1,0,-1
333 853 m 1,4,-1
 333 633 l 1,5,-1
 97 633 l 1,6,-1
 97 853 l 1,7,-1
 333 853 l 1,4,-1
EndSplineSet
EndChar

StartChar: semicolon
Encoding: 59 59 49
Width: 431
Flags: W
LayerCount: 2
Fore
SplineSet
340 219 m 1,0,-1
 340 0 l 1,1,2
 341 -187 341 -187 216 -231 c 1,3,4
 171 -248 171 -248 104 -246 c 1,5,-1
 104 -156 l 1,6,7
 176 -141 176 -141 203 -107 c 128,-1,8
 230 -73 230 -73 230 0 c 1,9,-1
 104 0 l 1,10,-1
 104 219 l 1,11,-1
 340 219 l 1,0,-1
333 853 m 1,12,-1
 333 633 l 1,13,-1
 97 633 l 1,14,-1
 97 853 l 1,15,-1
 333 853 l 1,12,-1
EndSplineSet
EndChar

StartChar: less
Encoding: 60 60 50
Width: 1191
Flags: W
LayerCount: 2
Fore
SplineSet
138 724 m 1,0,-1
 138 799 l 1,1,-1
 1052 1291 l 1,2,-1
 1052 1148 l 1,3,-1
 337 760 l 1,4,-1
 1052 376 l 1,5,-1
 1052 234 l 1,6,-1
 138 724 l 1,0,-1
EndSplineSet
EndChar

StartChar: equal
Encoding: 61 61 51
Width: 1191
Flags: W
LayerCount: 2
Fore
SplineSet
1052 614 m 1,0,-1
 1052 488 l 1,1,-1
 138 488 l 1,2,-1
 138 614 l 1,3,-1
 1052 614 l 1,0,-1
1052 1033 m 1,4,-1
 1052 907 l 1,5,-1
 138 907 l 1,6,-1
 138 1033 l 1,7,-1
 1052 1033 l 1,4,-1
EndSplineSet
EndChar

StartChar: greater
Encoding: 62 62 52
Width: 1191
Flags: W
LayerCount: 2
Fore
SplineSet
138 234 m 1,0,-1
 138 376 l 1,1,-1
 854 760 l 1,2,-1
 138 1148 l 1,3,-1
 138 1291 l 1,4,-1
 1052 799 l 1,5,-1
 1052 724 l 1,6,-1
 138 234 l 1,0,-1
EndSplineSet
EndChar

StartChar: question
Encoding: 63 63 53
Width: 828
Flags: W
LayerCount: 2
Fore
SplineSet
417 1092 m 0,0,1
 197 1092 197 1092 197 883 c 1,2,-1
 56 883 l 1,3,4
 56 1057 56 1057 159 1137.5 c 128,-1,5
 262 1218 262 1218 414 1217.5 c 128,-1,6
 566 1217 566 1217 667 1129.5 c 128,-1,7
 768 1042 768 1042 768 902.5 c 128,-1,8
 768 763 768 763 666 691 c 0,9,10
 636 670 636 670 579.5 632.5 c 0,11,12
 437.803665473 538.45376027 437.803665473 538.45376027 424 336 c 1,13,-1
 326 336 l 1,14,15
 326 598 326 598 459 696 c 0,16,17
 494 722 494 722 533.5 749 c 0,18,19
 620 808.126582278 620 808.126582278 620.5 896.563291139 c 128,-1,20
 621 985 621 985 562 1038.5 c 128,-1,21
 503 1092 503 1092 417 1092 c 0,0,1
470 0 m 1,22,-1
 291 0 l 1,23,-1
 291 205 l 1,24,-1
 470 205 l 1,25,-1
 470 0 l 1,22,-1
EndSplineSet
EndChar

StartChar: at
Encoding: 64 64 54
Width: 1475
Flags: W
LayerCount: 2
Fore
SplineSet
454 796 m 128,-1,1
 556 933 556 933 726.685714286 933 c 128,-1,2
 897.371428571 933 897.371428571 933 944 797 c 1,3,-1
 967 914 l 1,4,-1
 1109 914 l 1,5,-1
 994 384 l 2,6,7
 979 316 979 316 979 312 c 2,8,-1
 979 307 l 2,9,10
 979 268 979 268 1009 268 c 0,11,12
 1077 268 1077 268 1167.5 376.5 c 128,-1,13
 1258 485 1258 485 1258 662.5 c 128,-1,14
 1258 840 1258 840 1128 970 c 128,-1,15
 998 1100 998 1100 759 1100.5 c 128,-1,16
 520 1101 520 1101 358 933 c 128,-1,17
 196 765 196 765 195 512 c 128,-1,18
 194 259 194 259 349 112.5 c 128,-1,19
 504 -34 504 -34 763.5 -34 c 128,-1,20
 1023 -34 1023 -34 1178 84 c 1,21,-1
 1250 -3 l 1,22,23
 1061 -149 1061 -149 785 -149 c 0,24,25
 428 -149 428 -149 242 45.5 c 128,-1,26
 56 240 56 240 56 514 c 128,-1,27
 56 788 56 788 249.5 1003 c 128,-1,28
 443 1218 443 1218 761.5 1218.5 c 128,-1,29
 1080 1219 1080 1219 1234 1053 c 128,-1,30
 1388 887 1388 887 1388 669.5 c 128,-1,31
 1388 452 1388 452 1270.5 299.5 c 128,-1,32
 1153 147 1153 147 965 147 c 0,33,34
 871.884057971 147 871.884057971 147 859 274 c 1,35,36
 773 147 773 147 644.5 147 c 128,-1,37
 516 147 516 147 432.5 237.5 c 128,-1,38
 349 328 349 328 350.5 493.5 c 128,-1,0
 352 659 352 659 454 796 c 128,-1,1
735 815 m 0,39,40
 619 815 619 815 555.5 710.5 c 128,-1,41
 492 606 492 606 492 468 c 128,-1,42
 492 330 492 330 588 278 c 0,43,44
 620 260 620 260 666.5 260 c 128,-1,45
 713 260 713 260 756.5 293.5 c 128,-1,46
 800 327 800 327 831.5 379 c 128,-1,47
 863 431 863 431 882 496 c 128,-1,48
 901 561 901 561 901 636 c 128,-1,49
 901 711 901 711 852.5 763 c 128,-1,50
 804 815 804 815 735 815 c 0,39,40
EndSplineSet
EndChar

StartChar: A
Encoding: 65 65 55
Width: 1244
Flags: W
LayerCount: 2
Fore
SplineSet
-14 121 m 1,0,-1
 130 121 l 1,1,-1
 435 1078 l 1,2,-1
 331 1078 l 1,3,-1
 331 1199 l 1,4,-1
 913 1199 l 1,5,-1
 913 1078 l 1,6,-1
 808 1078 l 1,7,-1
 1114 121 l 1,8,-1
 1256 121 l 1,9,-1
 1256 0 l 1,10,-1
 785 0 l 1,11,-1
 785 121 l 1,12,-1
 941 121 l 1,13,-1
 853 441 l 1,14,-1
 390 441 l 1,15,-1
 303 121 l 1,16,-1
 458 121 l 1,17,-1
 458 0 l 1,18,-1
 -14 0 l 1,19,-1
 -14 121 l 1,0,-1
822 567 m 1,20,-1
 660 1078 l 1,21,-1
 583 1078 l 1,22,-1
 421 567 l 1,23,-1
 822 567 l 1,20,-1
EndSplineSet
EndChar

StartChar: B
Encoding: 66 66 56
Width: 1089
Flags: W
LayerCount: 2
Fore
SplineSet
69 0 m 1,0,-1
 69 121 l 1,1,-1
 223 121 l 1,2,-1
 223 1078 l 1,3,-1
 69 1078 l 1,4,-1
 69 1199 l 1,5,-1
 574 1199 l 1,6,7
 776 1198 776 1198 870.5 1110.5 c 128,-1,8
 965 1023 965 1023 964.5 888 c 0,9,10
 963.828916684 706.80750477 963.828916684 706.80750477 798 631 c 1,11,12
 953 580 953 580 1005 439 c 1,13,14
 1021 391 1021 391 1021 336 c 0,15,16
 1021 204 1021 204 918 102 c 128,-1,17
 815 0 815 0 563 0 c 2,18,-1
 69 0 l 1,0,-1
562 121 m 2,19,20
 848 121 848 121 848 345 c 0,21,22
 848 488 848 488 701 536 c 0,23,24
 647 553 647 553 568 553 c 2,25,-1
 389 553 l 1,26,-1
 389 121 l 1,27,-1
 562 121 l 2,19,20
558 687 m 1,28,29
 792 688.3 792 688.3 792 883.15 c 128,-1,30
 792 1078 792 1078 534 1078 c 2,31,-1
 389 1078 l 1,32,-1
 389 687 l 1,33,-1
 558 687 l 1,28,29
EndSplineSet
EndChar

StartChar: C
Encoding: 67 67 57
Width: 1299
Flags: W
LayerCount: 2
Fore
SplineSet
655 121 m 0,0,1
 1002 121 1002 121 1095 393 c 1,2,-1
 1236 319 l 1,3,4
 1159 133 1159 133 1006 57 c 128,-1,5
 853 -19 853 -19 693 -19 c 0,6,7
 396 -20 396 -20 234.5 150 c 128,-1,8
 73 320 73 320 72.5 600 c 128,-1,9
 72 880 72 880 238 1049.5 c 128,-1,10
 404 1219 404 1219 662 1218.5 c 128,-1,11
 920 1218 920 1218 1068 1063 c 1,12,-1
 1068 1199 l 1,13,-1
 1203 1199 l 1,14,-1
 1203 836 l 1,15,-1
 1073 836 l 1,16,17
 955 1077 955 1077 674 1077 c 0,18,19
 480 1077 480 1077 368 943.5 c 128,-1,20
 256 810 256 810 256 603 c 0,21,22
 256 266 256 266 485 158 c 1,23,24
 566 121 566 121 655 121 c 0,0,1
EndSplineSet
EndChar

StartChar: D
Encoding: 68 68 58
Width: 1322
Flags: W
LayerCount: 2
Fore
SplineSet
395 121 m 1,0,-1
 650 121 l 2,1,2
 865 121 865 121 970 256 c 128,-1,3
 1075 391 1075 391 1075 604 c 0,4,5
 1075 936 1075 936 839 1041 c 0,6,7
 755 1078 755 1078 633 1078 c 2,8,-1
 395 1078 l 1,9,-1
 395 121 l 1,0,-1
1247 620 m 0,10,11
 1247 0 1247 0 623 0 c 2,12,-1
 61 0 l 1,13,-1
 61 121 l 1,14,-1
 227 121 l 1,15,-1
 227 1078 l 1,16,-1
 61 1078 l 1,17,-1
 61 1199 l 1,18,-1
 638 1199 l 2,19,20
 1062 1199 1062 1199 1195 888 c 0,21,22
 1247 768 1247 768 1247 620 c 0,10,11
EndSplineSet
EndChar

StartChar: E
Encoding: 69 69 59
Width: 1164
Flags: W
LayerCount: 2
Fore
SplineSet
62 0 m 1,0,-1
 62 121 l 1,1,-1
 225 121 l 1,2,-1
 225 1078 l 1,3,-1
 62 1078 l 1,4,-1
 62 1199 l 1,5,-1
 1072 1199 l 1,6,-1
 1072 865 l 1,7,-1
 936 865 l 1,8,-1
 936 1078 l 1,9,-1
 390 1078 l 1,10,-1
 390 681 l 1,11,-1
 766 681 l 1,12,-1
 766 800 l 1,13,-1
 870 800 l 1,14,-1
 870 426 l 1,15,-1
 765 426 l 1,16,-1
 765 547 l 1,17,-1
 392 547 l 1,18,-1
 392 121 l 1,19,-1
 938 121 l 1,20,-1
 938 341 l 1,21,-1
 1072 341 l 1,22,-1
 1072 0 l 1,23,-1
 62 0 l 1,0,-1
EndSplineSet
EndChar

StartChar: F
Encoding: 70 70 60
Width: 1046
Flags: W
LayerCount: 2
Fore
SplineSet
64 0 m 1,0,-1
 64 121 l 1,1,-1
 223 121 l 1,2,-1
 223 1078 l 1,3,-1
 64 1078 l 1,4,-1
 64 1199 l 1,5,-1
 1018 1199 l 1,6,-1
 1018 865 l 1,7,-1
 881 865 l 1,8,-1
 881 1078 l 1,9,-1
 389 1078 l 1,10,-1
 389 683 l 1,11,-1
 716 683 l 1,12,-1
 716 802 l 1,13,-1
 820 802 l 1,14,-1
 820 428 l 1,15,-1
 714 428 l 1,16,-1
 714 549 l 1,17,-1
 390 549 l 1,18,-1
 390 121 l 1,19,-1
 552 121 l 1,20,-1
 552 0 l 1,21,-1
 64 0 l 1,0,-1
EndSplineSet
EndChar

StartChar: G
Encoding: 71 71 61
Width: 1346
Flags: W
LayerCount: 2
Fore
SplineSet
1088 836 m 1,0,1
 965 1078 965 1078 688 1078 c 0,2,3
 487 1078 487 1078 371.5 946 c 128,-1,4
 256 814 256 814 255 601.5 c 128,-1,5
 254 389 254 389 371.5 255 c 128,-1,6
 489 121 489 121 704 121 c 0,7,8
 1079.98734177 121 1079.98734177 121 1101 453 c 1,9,-1
 865 453 l 1,10,-1
 865 586 l 1,11,-1
 1289 586 l 1,12,13
 1281 275 1281 275 1123 128 c 128,-1,14
 965 -19 965 -19 703 -19 c 0,15,16
 352 -19 352 -19 191 204 c 0,17,18
 69 372 69 372 69 607 c 128,-1,19
 69 842 69 842 216.5 1030 c 128,-1,20
 364 1218 364 1218 645.5 1218 c 128,-1,21
 927 1218 927 1218 1082 1063 c 1,22,-1
 1082 1199 l 1,23,-1
 1217 1199 l 1,24,-1
 1217 836 l 1,25,-1
 1088 836 l 1,0,1
EndSplineSet
EndChar

StartChar: H
Encoding: 72 72 62
Width: 1346
Flags: W
LayerCount: 2
Fore
SplineSet
75 0 m 1,0,-1
 75 121 l 1,1,-1
 219 121 l 1,2,-1
 219 1078 l 1,3,-1
 75 1078 l 1,4,-1
 75 1199 l 1,5,-1
 536 1199 l 1,6,-1
 536 1078 l 1,7,-1
 386 1078 l 1,8,-1
 386 694 l 1,9,-1
 959 694 l 1,10,-1
 959 1078 l 1,11,-1
 811 1078 l 1,12,-1
 811 1199 l 1,13,-1
 1271 1199 l 1,14,-1
 1271 1078 l 1,15,-1
 1126 1078 l 1,16,-1
 1126 121 l 1,17,-1
 1271 121 l 1,18,-1
 1271 0 l 1,19,-1
 811 0 l 1,20,-1
 811 121 l 1,21,-1
 960 121 l 1,22,-1
 960 560 l 1,23,-1
 387 560 l 1,24,-1
 387 121 l 1,25,-1
 536 121 l 1,26,-1
 536 0 l 1,27,-1
 75 0 l 1,0,-1
EndSplineSet
EndChar

StartChar: I
Encoding: 73 73 63
Width: 604
Flags: W
LayerCount: 2
Fore
SplineSet
78 0 m 1,0,-1
 78 121 l 1,1,-1
 217 121 l 1,2,-1
 217 1078 l 1,3,-1
 78 1078 l 1,4,-1
 78 1199 l 1,5,-1
 523 1199 l 1,6,-1
 523 1078 l 1,7,-1
 386 1078 l 1,8,-1
 386 121 l 1,9,-1
 523 121 l 1,10,-1
 523 0 l 1,11,-1
 78 0 l 1,0,-1
EndSplineSet
EndChar

StartChar: J
Encoding: 74 74 64
Width: 579
Flags: W
LayerCount: 2
Fore
SplineSet
-35 -35 m 1,0,-1
 89 -35 l 2,1,2
 155 -35 155 -35 180 3.5 c 128,-1,3
 205 42 205 42 205 122 c 2,4,-1
 205 1078 l 1,5,-1
 44 1078 l 1,6,-1
 44 1199 l 1,7,-1
 534 1199 l 1,8,-1
 534 1078 l 1,9,-1
 374 1078 l 1,10,-1
 374 103 l 2,11,12
 374 -50 374 -50 299.5 -118.5 c 128,-1,13
 225 -187 225 -187 118 -186 c 1,14,-1
 -35 -186 l 1,15,-1
 -35 -35 l 1,0,-1
EndSplineSet
EndChar

StartChar: K
Encoding: 75 75 65
Width: 1185
Flags: W
LayerCount: 2
Fore
SplineSet
1166 0 m 1,0,-1
 681 0 l 1,1,-1
 681 121 l 1,2,-1
 814 121 l 1,3,-1
 390 610 l 1,4,-1
 390 121 l 1,5,-1
 535 121 l 1,6,-1
 535 0 l 1,7,-1
 67 0 l 1,8,-1
 67 121 l 1,9,-1
 223 121 l 1,10,-1
 223 1078 l 1,11,-1
 67 1078 l 1,12,-1
 67 1199 l 1,13,-1
 551 1199 l 1,14,-1
 551 1078 l 1,15,-1
 389 1078 l 1,16,-1
 389 643 l 1,17,-1
 827 1078 l 1,18,-1
 685 1078 l 1,19,-1
 685 1199 l 1,20,-1
 1154 1199 l 1,21,-1
 1154 1078 l 1,22,-1
 1020 1078 l 1,23,-1
 582 629 l 1,24,-1
 1030 121 l 1,25,-1
 1166 121 l 1,26,-1
 1166 0 l 1,0,-1
EndSplineSet
EndChar

StartChar: L
Encoding: 76 76 66
Width: 1023
Flags: W
LayerCount: 2
Fore
SplineSet
61 0 m 1,0,-1
 61 121 l 1,1,-1
 226 121 l 1,2,-1
 226 1078 l 1,3,-1
 61 1078 l 1,4,-1
 61 1199 l 1,5,-1
 554 1199 l 1,6,-1
 554 1078 l 1,7,-1
 393 1078 l 1,8,-1
 393 121 l 1,9,-1
 820 121 l 1,10,-1
 820 470 l 1,11,-1
 970 470 l 1,12,-1
 970 0 l 1,13,-1
 61 0 l 1,0,-1
EndSplineSet
EndChar

StartChar: M
Encoding: 77 77 67
Width: 1640
Flags: W
LayerCount: 2
Fore
SplineSet
222 1078 m 1,0,-1
 68 1078 l 1,1,-1
 68 1199 l 1,2,-1
 468 1199 l 1,3,-1
 814 330 l 1,4,-1
 1166 1199 l 1,5,-1
 1571 1199 l 1,6,-1
 1571 1078 l 1,7,-1
 1419 1078 l 1,8,-1
 1419 121 l 1,9,-1
 1571 121 l 1,10,-1
 1571 0 l 1,11,-1
 1126 0 l 1,12,-1
 1126 121 l 1,13,-1
 1265 121 l 1,14,-1
 1265 1064 l 1,15,-1
 833 0 l 1,16,-1
 789 0 l 1,17,-1
 361 1063 l 1,18,-1
 361 121 l 1,19,-1
 499 121 l 1,20,-1
 499 0 l 1,21,-1
 68 0 l 1,22,-1
 68 121 l 1,23,-1
 222 121 l 1,24,-1
 222 1078 l 1,0,-1
EndSplineSet
EndChar

StartChar: N
Encoding: 78 78 68
Width: 1375
Flags: W
LayerCount: 2
Fore
SplineSet
1025 1078 m 1,0,-1
 854 1078 l 1,1,-1
 854 1199 l 1,2,-1
 1345 1199 l 1,3,-1
 1345 1078 l 1,4,-1
 1165 1078 l 1,5,-1
 1165 0 l 1,6,-1
 974 0 l 1,7,-1
 373 1037 l 1,8,-1
 373 121 l 1,9,-1
 549 121 l 1,10,-1
 549 0 l 1,11,-1
 58 0 l 1,12,-1
 58 121 l 1,13,-1
 234 121 l 1,14,-1
 234 1078 l 1,15,-1
 58 1078 l 1,16,-1
 58 1199 l 1,17,-1
 456 1199 l 1,18,-1
 1025 219 l 1,19,-1
 1025 1078 l 1,0,-1
EndSplineSet
EndChar

StartChar: O
Encoding: 79 79 69
Width: 1374
Flags: W
LayerCount: 2
Fore
SplineSet
1000.5 940 m 128,-1,1
 880 1077 880 1077 687 1077 c 128,-1,2
 494 1077 494 1077 373.5 940 c 128,-1,3
 253 803 253 803 253 599 c 128,-1,4
 253 395 253 395 374.5 258 c 128,-1,5
 496 121 496 121 688 121 c 128,-1,6
 880 121 880 121 1000.5 258 c 128,-1,7
 1121 395 1121 395 1121 599 c 128,-1,0
 1121 803 1121 803 1000.5 940 c 128,-1,1
1136.5 1041.5 m 128,-1,9
 1306 865 1306 865 1306 598.5 c 128,-1,10
 1306 332 1306 332 1136.5 156 c 128,-1,11
 967 -20 967 -20 685.5 -19.5 c 128,-1,12
 404 -19 404 -19 236.5 157.5 c 128,-1,13
 69 334 69 334 69 599.5 c 128,-1,14
 69 865 69 865 236.5 1041 c 128,-1,15
 404 1217 404 1217 685.5 1217.5 c 128,-1,8
 967 1218 967 1218 1136.5 1041.5 c 128,-1,9
EndSplineSet
EndChar

StartChar: P
Encoding: 80 80 70
Width: 1071
Flags: W
LayerCount: 2
Fore
SplineSet
66 121 m 1,0,-1
 223 121 l 1,1,-1
 223 1078 l 1,2,-1
 66 1078 l 1,3,-1
 66 1199 l 1,4,-1
 620 1199 l 2,5,6
 622.08372093 1199.00930233 622.08372093 1199.00930233 624.156192537 1199.00930233 c 0,7,8
 844.874418605 1199.00930233 844.874418605 1199.00930233 938.437209302 1093.00465116 c 128,-1,9
 1032 987 1032 987 1032 837 c 0,10,11
 1032 555 1032 555 738 505 c 1,12,13
 649 491 649 491 543 491 c 2,14,-1
 391 491 l 1,15,-1
 391 121 l 1,16,-1
 555 121 l 1,17,-1
 555 0 l 1,18,-1
 66 0 l 1,19,-1
 66 121 l 1,0,-1
389 600 m 1,20,-1
 574 600 l 2,21,22
 803 600 803 600 847 745 c 1,23,24
 863.013440769 802.381496087 863.013440769 802.381496087 863.013440769 876.146977158 c 128,-1,25
 863.013440769 949.912458229 863.013440769 949.912458229 800.506720384 1013.95622911 c 128,-1,26
 738 1078 738 1078 625 1078 c 2,27,-1
 389 1078 l 1,28,-1
 389 600 l 1,20,-1
EndSplineSet
EndChar

StartChar: Q
Encoding: 81 81 71
Width: 1376
Flags: W
LayerCount: 2
Fore
SplineSet
1134 -73 m 1,0,-1
 1135 -227 l 1,1,2
 1087 -240 1087 -240 1016.8 -240 c 128,-1,3
 946.6 -240 946.6 -240 826.8 -187.5 c 128,-1,4
 707 -135 707 -135 582.5 -135 c 128,-1,5
 458 -135 458 -135 332 -190 c 1,6,-1
 331 -48 l 1,7,8
 441 9 441 9 534 9 c 1,9,10
 318 58 318 58 193.5 218.5 c 128,-1,11
 69 379 69 379 70 622 c 128,-1,12
 71 865 71 865 238.5 1041 c 128,-1,13
 406 1217 406 1217 687.5 1218 c 128,-1,14
 969 1219 969 1219 1138 1042 c 128,-1,15
 1307 865 1307 865 1307.5 611.5 c 128,-1,16
 1308 358 1308 358 1158.5 189.5 c 128,-1,17
 1009 21 1009 21 755 -5 c 1,18,19
 790 -16 790 -16 826.5 -29.5 c 128,-1,20
 863 -43 863 -43 901 -55.5 c 128,-1,21
 939 -68 939 -68 977.5 -76 c 128,-1,22
 1016 -84 1016 -84 1056.5 -84 c 128,-1,23
 1097 -84 1097 -84 1134 -73 c 1,0,-1
1002.5 940 m 128,-1,25
 882 1077 882 1077 688.5 1077 c 128,-1,26
 495 1077 495 1077 374.5 940 c 128,-1,27
 254 803 254 803 254 597.5 c 128,-1,28
 254 392 254 392 374 256.5 c 128,-1,29
 494 121 494 121 689 121 c 128,-1,30
 884 121 884 121 1003.5 256.5 c 128,-1,31
 1123 392 1123 392 1123 597.5 c 128,-1,24
 1123 803 1123 803 1002.5 940 c 128,-1,25
EndSplineSet
EndChar

StartChar: R
Encoding: 82 82 72
Width: 1151
Flags: W
LayerCount: 2
Fore
SplineSet
395 683 m 1,0,-1
 627 683 l 1,1,2
 751 684 751 684 803 742.5 c 128,-1,3
 855 801 855 801 855.5 889.5 c 128,-1,4
 856 978 856 978 793 1028 c 128,-1,5
 730 1078 730 1078 620 1078 c 2,6,-1
 395 1078 l 1,7,-1
 395 683 l 1,0,-1
1028 889 m 0,8,9
 1028 633 1028 633 758 580 c 1,10,-1
 1002 121 l 1,11,-1
 1153 121 l 1,12,-1
 1153 0 l 1,13,-1
 890 0 l 1,14,-1
 596 560 l 1,15,-1
 395 560 l 1,16,-1
 395 121 l 1,17,-1
 557 121 l 1,18,-1
 557 0 l 1,19,-1
 59 0 l 1,20,-1
 59 121 l 1,21,-1
 229 121 l 1,22,-1
 229 1078 l 1,23,-1
 59 1078 l 1,24,-1
 59 1199 l 1,25,-1
 632 1199 l 2,26,27
 930 1199 930 1199 1005 1016 c 0,28,29
 1028 959 1028 959 1028 889 c 0,8,9
EndSplineSet
EndChar

StartChar: S
Encoding: 83 83 73
Width: 1011
Flags: W
LayerCount: 2
Fore
SplineSet
481 1078 m 0,0,1
 254 1078 254 1078 254 889 c 0,2,3
 254 792.076923077 254 792.076923077 370 743 c 256,4,5
 422 721 422 721 545 694 c 0,6,7
 946 605.975609756 946 605.975609756 946 318 c 0,8,9
 946 173 946 173 836 77 c 128,-1,10
 726 -19 726 -19 548.5 -19 c 128,-1,11
 371 -19 371 -19 240 90 c 1,12,-1
 240 0 l 1,13,-1
 100 0 l 1,14,-1
 100 402 l 1,15,-1
 240 402 l 1,16,-1
 240 282 l 1,17,18
 364 121 364 121 507 121 c 128,-1,19
 650 121 650 121 712.5 176.5 c 128,-1,20
 775 232 775 232 775 303 c 128,-1,21
 775 374 775 374 748.5 412.5 c 128,-1,22
 722 451 722 451 669.5 480.5 c 128,-1,23
 617 510 617 510 492.5 539 c 128,-1,24
 368 568 368 568 305 591 c 0,25,26
 92 670 92 670 92 892 c 0,27,28
 92 1048 92 1048 198 1133 c 128,-1,29
 304 1218 304 1218 462 1218 c 128,-1,30
 620 1218 620 1218 742 1122 c 1,31,-1
 742 1199 l 1,32,-1
 882 1199 l 1,33,-1
 882 859 l 1,34,-1
 742 859 l 1,35,-1
 742 944 l 1,36,37
 644 1078 644 1078 481 1078 c 0,0,1
EndSplineSet
EndChar

StartChar: T
Encoding: 84 84 74
Width: 1075
Flags: W
LayerCount: 2
Fore
SplineSet
1030 1199 m 1,0,-1
 1030 837 l 1,1,-1
 893 837 l 1,2,-1
 893 1078 l 1,3,-1
 624 1078 l 1,4,-1
 624 121 l 1,5,-1
 805 121 l 1,6,-1
 805 0 l 1,7,-1
 272 0 l 1,8,-1
 272 121 l 1,9,-1
 454 121 l 1,10,-1
 454 1078 l 1,11,-1
 179 1078 l 1,12,-1
 179 837 l 1,13,-1
 45 837 l 1,14,-1
 45 1199 l 1,15,-1
 1030 1199 l 1,0,-1
EndSplineSet
EndChar

StartChar: U
Encoding: 85 85 75
Width: 1259
Flags: W
LayerCount: 2
Fore
SplineSet
1071 395 m 2,0,1
 1071 -19 1071 -19 613 -19 c 0,2,3
 383.982758621 -19 383.982758621 -19 286.49137931 95.5 c 128,-1,4
 189 210 189 210 189 397 c 2,5,-1
 189 1078 l 1,6,-1
 35 1078 l 1,7,-1
 35 1199 l 1,8,-1
 505 1199 l 1,9,-1
 505 1078 l 1,10,-1
 358 1078 l 1,11,-1
 358 393 l 2,12,13
 358 187 358 187 501 138 c 0,14,15
 553 121 553 121 667 121 c 0,16,17
 903 121 903 121 903 405 c 2,18,-1
 903 1078 l 1,19,-1
 755 1078 l 1,20,-1
 755 1199 l 1,21,-1
 1224 1199 l 1,22,-1
 1224 1078 l 1,23,-1
 1071 1078 l 1,24,-1
 1071 395 l 2,0,1
EndSplineSet
EndChar

StartChar: V
Encoding: 86 86 76
Width: 1256
Flags: W
LayerCount: 2
Fore
SplineSet
130 1078 m 1,0,-1
 -22 1078 l 1,1,-1
 -22 1199 l 1,2,-1
 451 1199 l 1,3,-1
 451 1078 l 1,4,-1
 305 1078 l 1,5,-1
 634 191 l 1,6,-1
 959 1078 l 1,7,-1
 812 1078 l 1,8,-1
 812 1199 l 1,9,-1
 1275 1199 l 1,10,-1
 1275 1078 l 1,11,-1
 1123 1078 l 1,12,-1
 709 0 l 1,13,-1
 549 0 l 1,14,-1
 130 1078 l 1,0,-1
EndSplineSet
EndChar

StartChar: W
Encoding: 87 87 77
Width: 1829
Flags: W
LayerCount: 2
Fore
SplineSet
1549 1078 m 1,0,-1
 1399 1078 l 1,1,-1
 1399 1199 l 1,2,-1
 1843 1199 l 1,3,-1
 1843 1078 l 1,4,-1
 1695 1078 l 1,5,-1
 1373 0 l 1,6,-1
 1208 0 l 1,7,-1
 911 965 l 1,8,-1
 618 0 l 1,9,-1
 459 0 l 1,10,-1
 130 1078 l 1,11,-1
 -21 1078 l 1,12,-1
 -21 1199 l 1,13,-1
 440 1199 l 1,14,-1
 440 1078 l 1,15,-1
 290 1078 l 1,16,-1
 545 218 l 1,17,-1
 795 1078 l 1,18,-1
 649 1078 l 1,19,-1
 649 1199 l 1,20,-1
 1189 1199 l 1,21,-1
 1189 1078 l 1,22,-1
 1044 1078 l 1,23,-1
 1295 218 l 1,24,-1
 1549 1078 l 1,0,-1
EndSplineSet
EndChar

StartChar: X
Encoding: 88 88 78
Width: 1195
Flags: W
LayerCount: 2
Fore
SplineSet
19 0 m 1,0,-1
 19 121 l 1,1,-1
 186 121 l 1,2,-1
 512 605 l 1,3,-1
 190 1078 l 1,4,-1
 30 1078 l 1,5,-1
 30 1199 l 1,6,-1
 511 1199 l 1,7,-1
 511 1078 l 1,8,-1
 370 1078 l 1,9,-1
 601 733 l 1,10,-1
 836 1078 l 1,11,-1
 691 1078 l 1,12,-1
 691 1199 l 1,13,-1
 1154 1199 l 1,14,-1
 1154 1078 l 1,15,-1
 997 1078 l 1,16,-1
 683 619 l 1,17,-1
 1024 121 l 1,18,-1
 1186 121 l 1,19,-1
 1186 0 l 1,20,-1
 695 0 l 1,21,-1
 695 121 l 1,22,-1
 839 121 l 1,23,-1
 594 489 l 1,24,-1
 348 121 l 1,25,-1
 498 121 l 1,26,-1
 498 0 l 1,27,-1
 19 0 l 1,0,-1
EndSplineSet
EndChar

StartChar: Y
Encoding: 89 89 79
Width: 1175
Flags: W
LayerCount: 2
Fore
SplineSet
340 0 m 1,0,-1
 340 121 l 1,1,-1
 505 121 l 1,2,-1
 505 551 l 1,3,-1
 133 1078 l 1,4,-1
 -19 1078 l 1,5,-1
 -19 1199 l 1,6,-1
 472 1199 l 1,7,-1
 472 1078 l 1,8,-1
 316 1078 l 1,9,-1
 601 674 l 1,10,-1
 868 1078 l 1,11,-1
 712 1078 l 1,12,-1
 712 1199 l 1,13,-1
 1191 1199 l 1,14,-1
 1191 1078 l 1,15,-1
 1029 1078 l 1,16,-1
 672 551 l 1,17,-1
 672 121 l 1,18,-1
 842 121 l 1,19,-1
 842 0 l 1,20,-1
 340 0 l 1,0,-1
EndSplineSet
EndChar

StartChar: Z
Encoding: 90 90 80
Width: 1050
Flags: W
LayerCount: 2
Fore
SplineSet
64 0 m 1,0,-1
 64 133 l 1,1,-1
 748 1078 l 1,2,-1
 230 1078 l 1,3,-1
 230 866 l 1,4,-1
 96 866 l 1,5,-1
 96 1199 l 1,6,-1
 961 1199 l 1,7,-1
 961 1083 l 1,8,-1
 267 121 l 1,9,-1
 837 121 l 1,10,-1
 837 348 l 1,11,-1
 971 348 l 1,12,-1
 971 0 l 1,13,-1
 64 0 l 1,0,-1
EndSplineSet
EndChar

StartChar: bracketleft
Encoding: 91 91 81
Width: 592
Flags: W
LayerCount: 2
Fore
SplineSet
563 1312 m 1,0,-1
 563 1199 l 1,1,-1
 302 1199 l 1,2,-1
 302 -116 l 1,3,-1
 563 -116 l 1,4,-1
 563 -228 l 1,5,-1
 153 -228 l 1,6,-1
 153 1312 l 1,7,-1
 563 1312 l 1,0,-1
EndSplineSet
EndChar

StartChar: backslash
Encoding: 92 92 82
Width: 825
Flags: W
LayerCount: 2
Fore
SplineSet
268 1218 m 1,0,-1
 720 -19 l 1,1,-1
 586 -19 l 1,2,-1
 134 1218 l 1,3,-1
 268 1218 l 1,0,-1
EndSplineSet
EndChar

StartChar: bracketright
Encoding: 93 93 83
Width: 592
Flags: W
LayerCount: 2
Fore
SplineSet
443 1312 m 1,0,-1
 443 -228 l 1,1,-1
 33 -228 l 1,2,-1
 33 -116 l 1,3,-1
 294 -116 l 1,4,-1
 294 1199 l 1,5,-1
 33 1199 l 1,6,-1
 33 1312 l 1,7,-1
 443 1312 l 1,0,-1
EndSplineSet
EndChar

StartChar: asciicircum
Encoding: 94 94 84
Width: 859
Flags: W
LayerCount: 2
Fore
SplineSet
820 629 m 1,0,-1
 662 629 l 1,1,-1
 432 1082 l 1,2,-1
 197 629 l 1,3,-1
 40 629 l 1,4,-1
 353 1218 l 1,5,-1
 512 1218 l 1,6,-1
 820 629 l 1,0,-1
EndSplineSet
EndChar

StartChar: underscore
Encoding: 95 95 85
Width: 934
Flags: W
LayerCount: 2
Fore
SplineSet
934 -85 m 1,0,-1
 934 -207 l 1,1,-1
 0 -207 l 1,2,-1
 0 -85 l 1,3,-1
 934 -85 l 1,0,-1
EndSplineSet
EndChar

StartChar: grave
Encoding: 96 96 86
Width: 584
Flags: W
LayerCount: 2
Fore
SplineSet
304 951 m 1,0,-1
 109 1218 l 1,1,-1
 324 1218 l 1,2,-1
 427 951 l 1,3,-1
 304 951 l 1,0,-1
EndSplineSet
EndChar

StartChar: a
Encoding: 97 97 87
Width: 925
Flags: W
LayerCount: 2
Fore
SplineSet
619 569 m 2,0,1
 619 724 619 724 425 729 c 1,2,3
 274 729 274 729 202 634 c 1,4,-1
 106 736 l 1,5,6
 223 853 223 853 420.5 853 c 128,-1,7
 618 853 618 853 696 775 c 128,-1,8
 774 697 774 697 774 576 c 2,9,-1
 774 121 l 1,10,-1
 924 121 l 1,11,-1
 924 0 l 1,12,-1
 635 0 l 1,13,-1
 633 86 l 1,14,15
 489 -19 489 -19 351.5 -19 c 128,-1,16
 214 -19 214 -19 136 52 c 128,-1,17
 58 123 58 123 58 212 c 0,18,19
 57 368 57 368 154 428.5 c 128,-1,20
 251 489 251 489 382 489 c 128,-1,21
 513 489 513 489 619 468 c 1,22,-1
 619 569 l 2,0,1
619 366 m 1,23,-1
 406.5 383 l 1,24,25
 204 383 204 383 204 226 c 0,26,27
 204 135 204 135 294 103 c 0,28,29
 323 93 323 93 360 93 c 0,30,31
 520 93 520 93 619 185 c 1,32,-1
 619 366 l 1,23,-1
EndSplineSet
EndChar

StartChar: b
Encoding: 98 98 88
Width: 1114
Flags: W
LayerCount: 2
Fore
SplineSet
332 735 m 1,0,1
 460 853 460 853 644 853 c 128,-1,2
 828 853 828 853 940 730 c 128,-1,3
 1052 607 1052 607 1053.5 422 c 128,-1,4
 1055 237 1055 237 940.5 109 c 128,-1,5
 826 -19 826 -19 626.65625 -19 c 128,-1,6
 427.3125 -19 427.3125 -19 331 115 c 1,7,-1
 327 0 l 1,8,-1
 24 0 l 1,9,-1
 24 121 l 1,10,-1
 175 121 l 1,11,-1
 175 1078 l 1,12,-1
 26 1078 l 1,13,-1
 26 1199 l 1,14,-1
 332 1199 l 1,15,-1
 332 735 l 1,0,1
332 238 m 1,16,17
 509 124 509 124 605 111 c 1,18,19
 734 111 734 111 809 196.5 c 128,-1,20
 884 282 884 282 884 412.5 c 128,-1,21
 884 543 884 543 807 632.5 c 128,-1,22
 730 722 730 722 592 722 c 128,-1,23
 454 722 454 722 332 587 c 1,24,-1
 332 238 l 1,16,17
EndSplineSet
EndChar

StartChar: c
Encoding: 99 99 89
Width: 935
Flags: W
LayerCount: 2
Fore
SplineSet
862 163 m 1,0,1
 742 -20 742 -20 506 -20 c 128,-1,2
 270 -20 270 -20 164 111.5 c 128,-1,3
 58 243 58 243 58 424 c 128,-1,4
 58 605 58 605 178 729 c 128,-1,5
 298 853 298 853 454 853 c 128,-1,6
 610 853 610 853 692 776 c 0,7,8
 711 757 711 757 719 742 c 1,9,-1
 714 837 l 1,10,-1
 853 837 l 1,11,-1
 853 538 l 1,12,-1
 719 538 l 1,13,14
 670 710 670 710 490 722 c 1,15,16
 361 722 361 722 293 641 c 128,-1,17
 225 560 225 560 225 416 c 0,18,19
 225 200 225 200 373 133 c 0,20,21
 422 111 422 111 487 111 c 0,22,23
 675 111 675 111 770 256 c 1,24,-1
 862 163 l 1,0,1
EndSplineSet
EndChar

StartChar: d
Encoding: 100 100 90
Width: 1114
Flags: W
LayerCount: 2
Fore
SplineSet
780 742 m 1,0,-1
 780 1078 l 1,1,-1
 612 1078 l 1,2,-1
 612 1199 l 1,3,-1
 934 1199 l 1,4,-1
 934 121 l 1,5,-1
 1092 121 l 1,6,-1
 1092 0 l 1,7,-1
 776 0 l 1,8,-1
 775 103 l 1,9,10
 651 -19 651 -19 478.5 -19 c 128,-1,11
 306 -19 306 -19 183 95.5 c 128,-1,12
 60 210 60 210 60 404.5 c 128,-1,13
 60 599 60 599 176.5 726 c 128,-1,14
 293 853 293 853 472.5 853 c 128,-1,15
 652 853 652 853 780 742 c 1,0,-1
778 590 m 1,16,17
 639 722 639 722 505.5 722 c 128,-1,18
 372 722 372 722 299.5 632.5 c 128,-1,19
 227 543 227 543 227 415 c 128,-1,20
 227 287 227 287 301 199.5 c 128,-1,21
 375 112 375 112 507.5 111.5 c 128,-1,22
 640 111 640 111 778 231 c 1,23,-1
 778 590 l 1,16,17
EndSplineSet
EndChar

StartChar: e
Encoding: 101 101 91
Width: 993
Flags: W
LayerCount: 2
Fore
SplineSet
904 163 m 1,0,1
 785 -19 785 -19 547.5 -19 c 128,-1,2
 310 -19 310 -19 183 106 c 128,-1,3
 56 231 56 231 56 418 c 128,-1,4
 56 605 56 605 188 729 c 128,-1,5
 320 853 320 853 518 853 c 128,-1,6
 716 853 716 853 825 720 c 128,-1,7
 934 587 934 587 934 380 c 1,8,-1
 228 380 l 1,9,10
 235 258 235 258 314 185 c 128,-1,11
 393 112 393 112 549.57518361 111.393119443 c 128,-1,13
 706.150367221 110.786238887 706.150367221 110.786238887 798 242 c 1,14,-1
 904 163 l 1,0,1
784 486 m 1,15,16
 772 591 772 591 702 656.5 c 128,-1,17
 632 722 632 722 520 722 c 0,18,19
 335 722 335 722 264 582 c 1,20,21
 241 539 241 539 232 486 c 1,22,-1
 784 486 l 1,15,16
EndSplineSet
EndChar

StartChar: f
Encoding: 102 102 92
Width: 577
Flags: W
LayerCount: 2
Fore
SplineSet
505 1002 m 1,0,1
 505 1095 505 1095 433 1095 c 0,2,3
 349 1095 349 1095 349 971 c 2,4,-1
 349 837 l 1,5,-1
 509 837 l 1,6,-1
 509 717 l 1,7,-1
 349 717 l 1,8,-1
 349 121 l 1,9,-1
 518 121 l 1,10,-1
 518 0 l 1,11,-1
 68 0 l 1,12,-1
 68 121 l 1,13,-1
 192 121 l 1,14,-1
 192 717 l 1,15,-1
 58 717 l 1,16,-1
 58 837 l 1,17,-1
 192 837 l 1,18,-1
 192 981 l 2,19,20
 192 1154 192 1154 340.030940594 1202.79269802 c 128,-1,21
 488.061881188 1251.58539604 488.061881188 1251.58539604 577 1169 c 1,22,23
 641 1113 641 1113 641 1002 c 1,24,-1
 505 1002 l 1,0,1
EndSplineSet
EndChar

StartChar: g
Encoding: 103 103 93
Width: 1112
Flags: W
LayerCount: 2
Fore
SplineSet
778 97 m 1,0,1
 676 0 676 0 481.315789474 0 c 128,-1,2
 286.631578947 0 286.631578947 0 173.315789474 117.5 c 128,-1,3
 60 235 60 235 60 414 c 128,-1,4
 60 593 60 593 177.5 723 c 128,-1,5
 295 853 295 853 471.5 853 c 128,-1,6
 648 853 648 853 778 737 c 1,7,-1
 778 837 l 1,8,-1
 1091 837 l 1,9,-1
 1091 717 l 1,10,-1
 934 717 l 1,11,-1
 934 -3 l 2,12,13
 934 -175 934 -175 809.5 -254 c 128,-1,14
 685 -333 685 -333 504.5 -333 c 128,-1,15
 324 -333 324 -333 209 -263 c 1,16,-1
 258 -149 l 1,17,18
 366 -204 366 -204 522 -204 c 128,-1,19
 678 -204 678 -204 751 -111 c 0,20,21
 778 -78 778 -78 778 -28 c 2,22,-1
 778 97 l 1,0,1
778 594 m 1,23,24
 644 722 644 722 512.5 722 c 128,-1,25
 381 722 381 722 304 633 c 128,-1,26
 227 544 227 544 226.5 417.5 c 128,-1,27
 226 291 226 291 300 210.5 c 128,-1,28
 374 130 374 130 506 130 c 128,-1,29
 638 130 638 130 778 238 c 1,30,-1
 778 594 l 1,23,24
EndSplineSet
EndChar

StartChar: h
Encoding: 104 104 94
Width: 1065
Flags: W
LayerCount: 2
Fore
SplineSet
762 549 m 2,0,1
 762 722 762 722 616 722 c 128,-1,2
 470 722 470 722 335 631 c 1,3,-1
 335 121 l 1,4,-1
 486 121 l 1,5,-1
 486 0 l 1,6,-1
 22 0 l 1,7,-1
 22 121 l 1,8,-1
 180 121 l 1,9,-1
 180 1078 l 1,10,-1
 24 1078 l 1,11,-1
 24 1199 l 1,12,-1
 335 1199 l 1,13,-1
 335 755 l 1,14,15
 483 853 483 853 651 853 c 0,16,17
 916 853 916 853 916 578 c 2,18,-1
 916 121 l 1,19,-1
 1066 121 l 1,20,-1
 1066 0 l 1,21,-1
 656 0 l 1,22,-1
 656 121 l 1,23,-1
 762 121 l 1,24,-1
 762 549 l 2,0,1
EndSplineSet
EndChar

StartChar: i
Encoding: 105 105 95
Width: 529
Flags: W
LayerCount: 2
Fore
SplineSet
209.5 1044 m 128,-1,1
 183 1070 183 1070 183 1119.5 c 128,-1,2
 183 1169 183 1169 241 1192 c 1,3,4
 302.460461285 1213.69192751 302.460461285 1213.69192751 337.730230643 1180.34596376 c 128,-1,5
 373 1147 373 1147 373 1108.5 c 128,-1,6
 373 1070 373 1070 345.5 1044 c 128,-1,7
 318 1018 318 1018 277 1018 c 128,-1,0
 236 1018 236 1018 209.5 1044 c 128,-1,1
61 717 m 1,8,-1
 61 837 l 1,9,-1
 357 837 l 1,10,-1
 357 121 l 1,11,-1
 498 121 l 1,12,-1
 498 0 l 1,13,-1
 61 0 l 1,14,-1
 61 121 l 1,15,-1
 202 121 l 1,16,-1
 202 717 l 1,17,-1
 61 717 l 1,8,-1
EndSplineSet
EndChar

StartChar: j
Encoding: 106 106 96
Width: 459
Flags: W
LayerCount: 2
Fore
SplineSet
176.5 1173 m 128,-1,1
 204 1199 204 1199 244.5 1199 c 128,-1,2
 285 1199 285 1199 312.5 1173 c 128,-1,3
 340 1147 340 1147 340 1108.5 c 128,-1,4
 340 1070 340 1070 312.5 1044 c 128,-1,5
 285 1018 285 1018 244.5 1018 c 128,-1,6
 204 1018 204 1018 176.5 1044 c 128,-1,7
 149 1070 149 1070 149 1108.5 c 128,-1,0
 149 1147 149 1147 176.5 1173 c 128,-1,1
11 717 m 1,8,-1
 11 837 l 1,9,-1
 327 837 l 1,10,-1
 327 20 l 2,11,12
 327 -149 327 -149 290.5 -205.5 c 0,13,14
 219.761061947 -315 219.761061947 -315 32 -315 c 2,15,-1
 -62 -315 l 1,16,-1
 -62 -186 l 1,17,-1
 49 -186 l 2,18,19
 118 -186 118 -186 144 -143.5 c 128,-1,20
 170 -101 170 -101 170 -8 c 2,21,-1
 170 717 l 1,22,-1
 11 717 l 1,8,-1
EndSplineSet
EndChar

StartChar: k
Encoding: 107 107 97
Width: 1035
Flags: W
LayerCount: 2
Fore
SplineSet
21 0 m 1,0,-1
 21 121 l 1,1,-1
 180 121 l 1,2,-1
 180 1078 l 1,3,-1
 21 1078 l 1,4,-1
 21 1199 l 1,5,-1
 334 1199 l 1,6,-1
 334 447 l 1,7,-1
 669 717 l 1,8,-1
 531 717 l 1,9,-1
 531 837 l 1,10,-1
 996 837 l 1,11,-1
 996 717 l 1,12,-1
 852 717 l 1,13,-1
 514 432 l 1,14,-1
 859 121 l 1,15,-1
 1005 121 l 1,16,-1
 1005 0 l 1,17,-1
 567 0 l 1,18,-1
 567 121 l 1,19,-1
 667 121 l 1,20,-1
 334 421 l 1,21,-1
 334 121 l 1,22,-1
 443 121 l 1,23,-1
 443 0 l 1,24,-1
 21 0 l 1,0,-1
EndSplineSet
EndChar

StartChar: l
Encoding: 108 108 98
Width: 506
Flags: W
LayerCount: 2
Fore
SplineSet
22 0 m 1,0,-1
 22 121 l 1,1,-1
 180 121 l 1,2,-1
 180 1078 l 1,3,-1
 25 1078 l 1,4,-1
 25 1199 l 1,5,-1
 335 1199 l 1,6,-1
 335 121 l 1,7,-1
 473 121 l 1,8,-1
 473 0 l 1,9,-1
 22 0 l 1,0,-1
EndSplineSet
EndChar

StartChar: m
Encoding: 109 109 99
Width: 1616
Flags: W
LayerCount: 2
Fore
SplineSet
623 722 m 0,0,1
 511.322580645 722 511.322580645 722 373 594 c 1,2,-1
 373 121 l 1,3,-1
 503 121 l 1,4,-1
 503 0 l 1,5,-1
 60 0 l 1,6,-1
 60 121 l 1,7,-1
 216 121 l 1,8,-1
 216 717 l 1,9,-1
 68 717 l 1,10,-1
 68 837 l 1,11,-1
 368 837 l 1,12,-1
 373 726 l 1,13,14
 524 853 524 853 679 853 c 128,-1,15
 834 853 834 853 893 707 c 1,16,17
 1065 853 1065 853 1197 853 c 128,-1,18
 1329 853 1329 853 1391 780 c 128,-1,19
 1453 707 1453 707 1453 591 c 2,20,-1
 1453 111 l 1,21,-1
 1604 111 l 1,22,-1
 1604 0 l 1,23,-1
 1182 0 l 1,24,-1
 1182 111 l 1,25,-1
 1300 111 l 1,26,-1
 1300 558 l 2,27,28
 1300 722 1300 722 1167 722 c 0,29,30
 1069 722 1069 722 959 628 c 0,31,32
 931 604 931 604 915 583 c 1,33,-1
 915 121 l 1,34,-1
 1045 121 l 1,35,-1
 1045 0 l 1,36,-1
 641 0 l 1,37,-1
 641 121 l 1,38,-1
 757 121 l 1,39,-1
 757 555 l 2,40,41
 757 722 757 722 623 722 c 0,0,1
EndSplineSet
EndChar

StartChar: n
Encoding: 110 110 100
Width: 1072
Flags: W
LayerCount: 2
Fore
SplineSet
371 729 m 1,0,1
 530 853 530 853 655 853 c 128,-1,2
 780 853 780 853 844.5 780 c 128,-1,3
 909 707 909 707 910 584 c 1,4,-1
 909 121 l 1,5,-1
 1060 121 l 1,6,-1
 1060 0 l 1,7,-1
 642 0 l 1,8,-1
 642 121 l 1,9,-1
 756 121 l 1,10,-1
 756 527 l 2,11,12
 756 619 756 619 728 670.5 c 128,-1,13
 700 722 700 722 602.5 722 c 128,-1,14
 505 722 505 722 371 593 c 1,15,-1
 371 121 l 1,16,-1
 522 121 l 1,17,-1
 522 0 l 1,18,-1
 66 0 l 1,19,-1
 66 121 l 1,20,-1
 214 121 l 1,21,-1
 214 717 l 1,22,-1
 59 717 l 1,23,-1
 59 837 l 1,24,-1
 367 837 l 1,25,-1
 371 729 l 1,0,1
EndSplineSet
EndChar

StartChar: o
Encoding: 111 111 101
Width: 1005
Flags: W
LayerCount: 2
Fore
SplineSet
703.5 635.5 m 128,-1,1
 627 722 627 722 501.5 722 c 128,-1,2
 376 722 376 722 300.5 635.5 c 128,-1,3
 225 549 225 549 225 417 c 128,-1,4
 225 285 225 285 300.5 198.5 c 128,-1,5
 376 112 376 112 501.5 112 c 128,-1,6
 627 112 627 112 703.5 198.5 c 128,-1,7
 780 285 780 285 780 417 c 128,-1,0
 780 549 780 549 703.5 635.5 c 128,-1,1
824.5 727.5 m 128,-1,9
 946 602 946 602 946 417 c 128,-1,10
 946 232 946 232 823 106.5 c 128,-1,11
 700 -19 700 -19 501.5 -19 c 128,-1,12
 303 -19 303 -19 181 107 c 128,-1,13
 59 233 59 233 58.5 417.5 c 128,-1,14
 58 602 58 602 180.5 727.5 c 128,-1,15
 303 853 303 853 503 853 c 128,-1,8
 703 853 703 853 824.5 727.5 c 128,-1,9
EndSplineSet
EndChar

StartChar: p
Encoding: 112 112 102
Width: 1100
Flags: W
LayerCount: 2
Fore
SplineSet
326 90 m 1,0,-1
 326 -186 l 1,1,-1
 497 -186 l 1,2,-1
 497 -315 l 1,3,-1
 14 -315 l 1,4,-1
 14 -186 l 1,5,-1
 173 -186 l 1,6,-1
 173 717 l 1,7,-1
 26 717 l 1,8,-1
 26 837 l 1,9,-1
 317 837 l 1,10,-1
 326 726 l 1,11,12
 447 853 447 853 630 853 c 128,-1,13
 813 853 813 853 926.5 728 c 128,-1,14
 1040 603 1040 603 1041 418 c 128,-1,15
 1042 233 1042 233 925.5 107 c 128,-1,16
 809 -19 809 -19 627 -19 c 128,-1,17
 445 -19 445 -19 326 90 c 1,0,-1
326 219 m 1,18,19
 464 111 464 111 597 111 c 128,-1,20
 730 111 730 111 805 196.5 c 128,-1,21
 880 282 880 282 880 412.5 c 128,-1,22
 880 543 880 543 803 632.5 c 128,-1,23
 726 722 726 722 589.5 722 c 128,-1,24
 453 722 453 722 326 594 c 1,25,-1
 326 219 l 1,18,19
EndSplineSet
EndChar

StartChar: q
Encoding: 113 113 103
Width: 1106
Flags: W
LayerCount: 2
Fore
SplineSet
775 727 m 1,0,-1
 778 837 l 1,1,-1
 1078 837 l 1,2,-1
 1078 717 l 1,3,-1
 931 717 l 1,4,-1
 931 -186 l 1,5,-1
 1089 -186 l 1,6,-1
 1089 -315 l 1,7,-1
 606 -315 l 1,8,-1
 606 -186 l 1,9,-1
 775 -186 l 1,10,-1
 775 94 l 1,11,12
 655 -19 655 -19 472 -19 c 128,-1,13
 289 -19 289 -19 174.5 106 c 128,-1,14
 60 231 60 231 60 417 c 128,-1,15
 60 603 60 603 176.5 728 c 128,-1,16
 293 853 293 853 479.5 853 c 128,-1,17
 666 853 666 853 775 727 c 1,0,-1
775 587 m 1,18,19
 647 722 647 722 507.5 722 c 128,-1,20
 368 722 368 722 294 633.5 c 128,-1,21
 220 545 220 545 220 414 c 128,-1,22
 220 283 220 283 295 197 c 256,23,24
 370 111 370 111 502.5 111 c 128,-1,25
 635 111 635 111 775 238 c 1,26,-1
 775 587 l 1,18,19
EndSplineSet
EndChar

StartChar: r
Encoding: 114 114 104
Width: 791
Flags: W
LayerCount: 2
Fore
SplineSet
362 655 m 1,0,1
 458.525 853 458.525 853 664 853 c 0,2,3
 711 853 711 853 763 847 c 1,4,-1
 758 702 l 1,5,6
 755 705 755 705 707 705 c 2,7,-1
 656 705 l 2,8,9
 445 705 445 705 404 523 c 0,10,11
 391 466 391 466 390 395 c 1,12,-1
 390 121 l 1,13,-1
 573 121 l 1,14,-1
 573 0 l 1,15,-1
 67 0 l 1,16,-1
 67 121 l 1,17,-1
 234 121 l 1,18,-1
 234 717 l 1,19,-1
 60 717 l 1,20,-1
 60 837 l 1,21,-1
 361 837 l 1,22,-1
 362 655 l 1,0,1
EndSplineSet
EndChar

StartChar: s
Encoding: 115 115 105
Width: 841
Flags: W
LayerCount: 2
Fore
SplineSet
218 52 m 1,0,-1
 218 0 l 1,1,-1
 80 0 l 1,2,-1
 80 274 l 1,3,-1
 218 274 l 1,4,-1
 218 218 l 1,5,6
 278 104 278 104 450.5 104 c 128,-1,7
 623 104 623 104 623 226 c 1,8,9
 624 308 624 308 514 331 c 1,10,11
 480 337 480 337 373.5 353.5 c 128,-1,12
 267 370 267 370 193 412 c 1,13,14
 77 476 77 476 77.5 594.5 c 128,-1,15
 78 713 78 713 164 783 c 128,-1,16
 250 853 250 853 377.5 853 c 128,-1,17
 505 853 505 853 600 775 c 1,18,-1
 600 837 l 1,19,-1
 734 837 l 1,20,-1
 734 571 l 1,21,-1
 600 571 l 1,22,-1
 600 641 l 1,23,24
 526 730 526 730 420.5 730 c 128,-1,25
 315 730 315 730 270 699.5 c 128,-1,26
 225 669 225 669 225 626.5 c 128,-1,27
 225 584 225 584 252.085714286 556.914285714 c 128,-1,28
 279.171428571 529.828571429 279.171428571 529.828571429 399.585714286 507.414285714 c 128,-1,29
 520 485 520 485 577 469 c 0,30,31
 782 414 782 414 782 237 c 0,32,33
 782 122 782 122 691.5 51.5 c 128,-1,34
 601 -19 601 -19 454 -19 c 128,-1,35
 307 -19 307 -19 218 52 c 1,0,-1
EndSplineSet
EndChar

StartChar: t
Encoding: 116 116 106
Width: 549
Flags: W
LayerCount: 2
Fore
SplineSet
36 717 m 1,0,-1
 36 837 l 1,1,-1
 165 837 l 1,2,-1
 165 1106 l 1,3,-1
 322 1139 l 1,4,-1
 322 837 l 1,5,-1
 502 837 l 1,6,-1
 502 717 l 1,7,-1
 322 717 l 1,8,-1
 322 301 l 2,9,10
 322 193 322 193 336 157 c 128,-1,11
 350 121 350 121 411 121 c 2,12,-1
 534 121 l 1,13,-1
 534 0 l 1,14,-1
 390 0 l 2,15,16
 243 0 243 0 197 89 c 0,17,18
 165 150 165 150 165 312 c 2,19,-1
 165 717 l 1,20,-1
 36 717 l 1,0,-1
EndSplineSet
EndChar

StartChar: u
Encoding: 117 117 107
Width: 1034
Flags: W
LayerCount: 2
Fore
SplineSet
446 111 m 0,0,1
 587 111 587 111 700 260 c 1,2,-1
 700 717 l 1,3,-1
 549 717 l 1,4,-1
 549 837 l 1,5,-1
 857 837 l 1,6,-1
 857 121 l 1,7,-1
 1009 121 l 1,8,-1
 1009 0 l 1,9,-1
 705 0 l 1,10,-1
 700 104 l 1,11,12
 571 -19 571 -19 417 -19 c 0,13,14
 158 -19 158 -19 158 271 c 2,15,-1
 158 717 l 1,16,-1
 33 717 l 1,17,-1
 33 837 l 1,18,-1
 316 837 l 1,19,-1
 316 279 l 2,20,21
 316 111 316 111 446 111 c 0,0,1
EndSplineSet
EndChar

StartChar: v
Encoding: 118 118 108
Width: 998
Flags: W
LayerCount: 2
Fore
SplineSet
439 0 m 1,0,-1
 153 717 l 1,1,-1
 -2 717 l 1,2,-1
 -2 837 l 1,3,-1
 425 837 l 1,4,-1
 425 717 l 1,5,-1
 305 717 l 1,6,-1
 508 178 l 1,7,-1
 707 717 l 1,8,-1
 582 717 l 1,9,-1
 582 837 l 1,10,-1
 1000 837 l 1,11,-1
 1000 717 l 1,12,-1
 862 717 l 1,13,-1
 580 0 l 1,14,-1
 439 0 l 1,0,-1
EndSplineSet
EndChar

StartChar: w
Encoding: 119 119 109
Width: 1459
Flags: W
LayerCount: 2
Fore
SplineSet
115 717 m 1,0,-1
 2 717 l 1,1,-1
 2 837 l 1,2,-1
 370 837 l 1,3,-1
 370 717 l 1,4,-1
 250 717 l 1,5,-1
 430 163 l 1,6,-1
 614 717 l 1,7,-1
 515 717 l 1,8,-1
 515 837 l 1,9,-1
 929 837 l 1,10,-1
 929 717 l 1,11,-1
 830 717 l 1,12,-1
 1018 152 l 1,13,-1
 1197 717 l 1,14,-1
 1070 717 l 1,15,-1
 1070 837 l 1,16,-1
 1458 837 l 1,17,-1
 1458 717 l 1,18,-1
 1331 717 l 1,19,-1
 1088 0 l 1,20,-1
 940 0 l 1,21,-1
 727 630 l 1,22,-1
 506 0 l 1,23,-1
 358 0 l 1,24,-1
 115 717 l 1,0,-1
EndSplineSet
EndChar

StartChar: x
Encoding: 120 120 110
Width: 1029
Flags: W
LayerCount: 2
Fore
SplineSet
36 0 m 1,0,-1
 36 121 l 1,1,-1
 167 121 l 1,2,-1
 433 430 l 1,3,-1
 180 717 l 1,4,-1
 56 717 l 1,5,-1
 56 837 l 1,6,-1
 462 837 l 1,7,-1
 462 717 l 1,8,-1
 342 717 l 1,9,-1
 513 520 l 1,10,-1
 677 717 l 1,11,-1
 576 717 l 1,12,-1
 576 837 l 1,13,-1
 982 837 l 1,14,-1
 982 717 l 1,15,-1
 839 717 l 1,16,-1
 595 430 l 1,17,-1
 865 121 l 1,18,-1
 986 121 l 1,19,-1
 986 0 l 1,20,-1
 574 0 l 1,21,-1
 574 121 l 1,22,-1
 706 121 l 1,23,-1
 513 340 l 1,24,-1
 333 121 l 1,25,-1
 453 121 l 1,26,-1
 453 0 l 1,27,-1
 36 0 l 1,0,-1
EndSplineSet
EndChar

StartChar: y
Encoding: 121 121 111
Width: 1021
Flags: W
LayerCount: 2
Fore
SplineSet
707 717 m 1,0,-1
 588 717 l 1,1,-1
 588 837 l 1,2,-1
 1017 837 l 1,3,-1
 1017 717 l 1,4,-1
 883 717 l 1,5,-1
 658 37 l 1,6,7
 594 -162 594 -162 513.5 -247.5 c 0,8,9
 433 -333 433 -333 269 -333 c 2,10,-1
 167 -333 l 1,11,-1
 167 -186 l 1,12,-1
 257 -186 l 1,13,14
 343 -187 343 -187 381.5 -166 c 0,15,16
 420 -145 420 -145 457 -44 c 2,17,-1
 490 45 l 1,18,-1
 416 45 l 1,19,-1
 129 717 l 1,20,-1
 -1 717 l 1,21,-1
 -1 837 l 1,22,-1
 421 837 l 1,23,-1
 421 717 l 1,24,-1
 309 717 l 1,25,-1
 530 154 l 1,26,-1
 707 717 l 1,0,-1
EndSplineSet
EndChar

StartChar: z
Encoding: 122 122 112
Width: 866
Flags: W
LayerCount: 2
Fore
SplineSet
56 0 m 1,0,-1
 56 121 l 1,1,-1
 598 717 l 1,2,-1
 224 717 l 1,3,-1
 224 558 l 1,4,-1
 98 558 l 1,5,-1
 98 837 l 1,6,-1
 787 837 l 1,7,-1
 787 710 l 1,8,-1
 243 121 l 1,9,-1
 651 121 l 1,10,-1
 651 287 l 1,11,-1
 784 287 l 1,12,-1
 784 0 l 1,13,-1
 56 0 l 1,0,-1
EndSplineSet
EndChar

StartChar: braceleft
Encoding: 123 123 113
Width: 549
Flags: W
LayerCount: 2
Fore
SplineSet
31 561 m 1,0,1
 123 562 123 562 154 624.5 c 128,-1,2
 185 687 185 687 185 861.956521739 c 128,-1,3
 185 1036.91304348 185 1036.91304348 216 1107 c 0,4,5
 266 1219 266 1219 435 1218 c 1,6,-1
 512 1218 l 1,7,-1
 512 1094 l 1,8,9
 405 1094 405 1094 379.5 1070.5 c 128,-1,10
 354 1047 354 1047 347 1014.5 c 128,-1,11
 340 982 340 982 340 844.5 c 128,-1,12
 340 707 340 707 315 624 c 128,-1,13
 290 541 290 541 200 494 c 1,14,15
 281 450 281 450 310 372.5 c 128,-1,16
 339 295 339 295 339 128.75 c 128,-1,17
 339 -37.5 339 -37.5 362.166666667 -72.25 c 128,-1,18
 385.333333333 -107 385.333333333 -107 512 -107 c 1,19,-1
 512 -232 l 1,20,-1
 436 -232 l 1,21,22
 267 -233 267 -233 217 -125 c 0,23,24
 185 -55.6666666667 185 -55.6666666667 185 121.166666667 c 128,-1,25
 185 298 185 298 155 362.5 c 128,-1,26
 125 427 125 427 31 426 c 1,27,-1
 31 561 l 1,0,1
EndSplineSet
EndChar

StartChar: bar
Encoding: 124 124 114
Width: 420
Flags: W
LayerCount: 2
Fore
SplineSet
147 1199 m 1,0,-1
 274 1199 l 1,1,-1
 274 -100 l 1,2,-1
 147 -100 l 1,3,-1
 147 1199 l 1,0,-1
EndSplineSet
EndChar

StartChar: braceright
Encoding: 125 125 115
Width: 549
Flags: W
LayerCount: 2
Fore
SplineSet
512 426 m 1,0,1
 418 426 418 426 388 362 c 128,-1,2
 358 298 358 298 358 122.673913043 c 128,-1,3
 358 -52.652173913 358 -52.652173913 326 -125 c 1,4,5
 276 -233 276 -233 107 -232 c 1,6,-1
 31 -232 l 1,7,-1
 31 -107 l 1,8,9
 155.595744681 -107 155.595744681 -107 177.29787234 -77 c 128,-1,10
 199 -47 199 -47 201.5 -2 c 128,-1,11
 204 43 204 43 204 167 c 128,-1,12
 204 291 204 291 232.5 370.5 c 128,-1,13
 261 450 261 450 343 494 c 1,14,15
 253 541 253 541 228 624 c 128,-1,16
 203 707 203 707 203 844.5 c 128,-1,17
 203 982 203 982 196 1014.5 c 128,-1,18
 189 1047 189 1047 164 1070.5 c 128,-1,19
 139 1094 139 1094 31 1094 c 1,20,-1
 31 1218 l 1,21,-1
 108 1218 l 2,22,23
 277 1218 277 1218 327 1108 c 1,24,25
 358 1037 358 1037 358 862 c 128,-1,26
 358 687 358 687 388 624 c 128,-1,27
 418 561 418 561 512 561 c 1,28,-1
 512 426 l 1,0,1
EndSplineSet
EndChar

StartChar: asciitilde
Encoding: 126 126 116
Width: 1104
Flags: W
LayerCount: 2
Fore
SplineSet
689 628.5 m 128,-1,1
 750 608 750 608 823 608 c 128,-1,2
 896 608 896 608 961 677 c 1,3,-1
 1026 596 l 1,4,5
 942 459 942 459 809 459 c 0,6,7
 727.094339623 459 727.094339623 459 554.283018868 530 c 128,-1,8
 381.471698113 601 381.471698113 601 293.735849057 601 c 128,-1,9
 206 601 206 601 137 516 c 1,10,-1
 80 596 l 1,11,12
 178 737 178 737 319 737 c 0,13,14
 398.833333333 737 398.833333333 737 513.416666667 693 c 128,-1,0
 628 649 628 649 689 628.5 c 128,-1,1
EndSplineSet
EndChar

StartChar: cent
Encoding: 162 162 118
Width: 935
Flags: W
LayerCount: 2
Fore
SplineSet
567 842 m 1,0,-1
 698 1218 l 1,1,-1
 778 1199 l 1,2,-1
 642 812 l 1,3,4
 699 779 699 779 719 742 c 1,5,-1
 714 837 l 1,6,-1
 853 837 l 1,7,-1
 853 538 l 1,8,-1
 719 538 l 1,9,10
 693 656 693 656 602 699 c 1,11,-1
 400 123 l 1,12,13
 441 111 441 111 487 111 c 0,14,15
 675 111 675 111 770 256 c 1,16,-1
 862 163 l 1,17,18
 742 -20 742 -20 483 -20 c 0,19,20
 418 -20 418 -20 356 -4 c 1,21,-1
 241 -333 l 1,22,-1
 162 -315 l 1,23,-1
 281 24 l 1,24,25
 171 79 171 79 114.5 187 c 128,-1,26
 58 295 58 295 58.5 402.5 c 128,-1,27
 59 510 59 510 91 590.5 c 128,-1,28
 123 671 123 671 179 729 c 128,-1,29
 235 787 235 787 312.5 820 c 128,-1,30
 390 853 390 853 458.5 853 c 128,-1,31
 527 853 527 853 567 842 c 1,0,-1
490 722 m 0,32,33
 225 722 225 722 225 399.5 c 0,34,35
 225 239 225 239 328 160 c 1,36,-1
 523 720 l 1,37,38
 506 722 506 722 490 722 c 0,32,33
EndSplineSet
EndChar

StartChar: sterling
Encoding: 163 163 119
Width: 1033
Flags: W
LayerCount: 2
Fore
SplineSet
919 59 m 128,-1,1
 867 -19 867 -19 742.925925926 -19 c 128,-1,2
 618.851851852 -19 618.851851852 -19 462 102 c 1,3,4
 382 -19 382 -19 271.5 -19 c 128,-1,5
 161 -19 161 -19 107 32 c 128,-1,6
 53 83 53 83 53 157 c 128,-1,7
 53 231 53 231 109 291.5 c 128,-1,8
 165 352 165 352 255.5 352 c 128,-1,9
 346 352 346 352 433 271 c 1,10,11
 440 300 440 300 440 360 c 128,-1,12
 440 420 440 420 363 550 c 1,13,-1
 137 550 l 1,14,-1
 137 671 l 1,15,-1
 298 671 l 1,16,17
 238 797 238 797 238 884 c 0,18,19
 238 1045 238 1045 334.5 1132 c 128,-1,20
 431 1219 431 1219 595 1218 c 1,21,22
 832 1218 832 1218 901 1030 c 1,23,24
 921 970 921 970 922 898 c 1,25,-1
 782 898 l 1,26,27
 782 1094 782 1094 602 1094 c 0,28,29
 498 1094 498 1094 442 1046 c 128,-1,30
 386 998 386 998 386 922 c 128,-1,31
 386 846 386 846 411.5 788 c 128,-1,32
 437 730 437 730 468 671 c 1,33,-1
 851 671 l 1,34,-1
 851 550 l 1,35,-1
 525 550 l 1,36,37
 561 463 561 463 561 380.5 c 128,-1,38
 561 298 561 298 519 215 c 1,39,40
 663.941176471 127 663.941176471 127 718 127 c 128,-1,41
 772 127 772 127 813.5 143.5 c 128,-1,42
 855 160 855 160 863.5 209.5 c 128,-1,43
 872 259 872 259 875 302 c 1,44,-1
 971 302 l 1,45,0
 971 137 971 137 919 59 c 128,-1,1
243 257 m 1,46,47
 164 257 164 257 164 149 c 0,48,49
 164 98 164 98 216 75 c 0,50,51
 233 67 233 67 264 68 c 1,52,53
 327 68 327 68 388 170 c 1,54,55
 292 248 292 248 243 257 c 1,46,47
EndSplineSet
EndChar

StartChar: currency
Encoding: 164 164 120
Width: 966
Flags: W
LayerCount: 2
Fore
SplineSet
212 625 m 1,0,1
 134 719 134 719 134 840.5 c 128,-1,2
 134 962 134 962 210 1047 c 1,3,-1
 127 1132 l 1,4,-1
 199 1203 l 1,5,-1
 288 1114 l 1,6,7
 376 1169 376 1169 483 1169 c 256,8,9
 590 1169 590 1169 678 1112 c 1,10,-1
 770 1203 l 1,11,-1
 841 1132 l 1,12,-1
 755 1045 l 1,13,14
 830 956 830 956 830 838 c 128,-1,15
 830 720 830 720 753 627 c 1,16,-1
 841 540 l 1,17,-1
 770 469 l 1,18,-1
 676 561 l 1,19,20
 593 505 593 505 483.5 505 c 128,-1,21
 374 505 374 505 290 560 c 1,22,-1
 199 469 l 1,23,-1
 127 540 l 1,24,-1
 212 625 l 1,0,1
684 834 m 0,25,26
 684 973 684 973 570 1028 c 0,27,28
 532 1046 532 1046 482 1046 c 128,-1,29
 432 1046 432 1046 394 1027.5 c 0,30,31
 281.301952311 972.633845204 281.301952311 972.633845204 280.5 835.5 c 0,32,33
 280 750 280 750 334 687 c 128,-1,34
 388 624 388 624 483.5 624 c 128,-1,35
 579 624 579 624 631.5 687 c 128,-1,36
 684 750 684 750 684 834 c 0,25,26
EndSplineSet
EndChar

StartChar: yen
Encoding: 165 165 121
Width: 1175
Flags: W
LayerCount: 2
Fore
SplineSet
340 0 m 1,0,-1
 340 121 l 1,1,-1
 505 121 l 1,2,-1
 505 309 l 1,3,-1
 259 309 l 1,4,-1
 259 431 l 1,5,-1
 505 431 l 1,6,-1
 505 523 l 1,7,-1
 259 523 l 1,8,-1
 259 647 l 1,9,-1
 438 647 l 1,10,-1
 133 1078 l 1,11,-1
 -19 1078 l 1,12,-1
 -19 1199 l 1,13,-1
 472 1199 l 1,14,-1
 472 1078 l 1,15,-1
 316 1078 l 1,16,-1
 601 674 l 1,17,-1
 868 1078 l 1,18,-1
 712 1078 l 1,19,-1
 712 1199 l 1,20,-1
 1191 1199 l 1,21,-1
 1191 1078 l 1,22,-1
 1029 1078 l 1,23,-1
 736 647 l 1,24,-1
 920 647 l 1,25,-1
 920 523 l 1,26,-1
 672 523 l 1,27,-1
 672 431 l 1,28,-1
 920 431 l 1,29,-1
 920 309 l 1,30,-1
 672 309 l 1,31,-1
 672 121 l 1,32,-1
 842 121 l 1,33,-1
 842 0 l 1,34,-1
 340 0 l 1,0,-1
EndSplineSet
EndChar

StartChar: brokenbar
Encoding: 166 166 122
Width: 420
Flags: W
LayerCount: 2
Fore
SplineSet
274 1199 m 1,0,-1
 274 717 l 1,1,-1
 147 717 l 1,2,-1
 147 1199 l 1,3,-1
 274 1199 l 1,0,-1
274 464 m 1,4,-1
 274 -19 l 1,5,-1
 147 -19 l 1,6,-1
 147 464 l 1,7,-1
 274 464 l 1,4,-1
EndSplineSet
EndChar

StartChar: section
Encoding: 167 167 123
Width: 912
Flags: W
LayerCount: 2
Fore
SplineSet
274 201 m 0,0,1
 92 291 92 291 92 440.666666667 c 128,-1,2
 92 590.333333333 92 590.333333333 258 701 c 1,3,4
 123 782 123 782 123 918.5 c 128,-1,5
 123 1055 123 1055 221.5 1137 c 128,-1,6
 320 1219 320 1219 487.5 1218.5 c 128,-1,7
 655 1218 655 1218 751 1102 c 0,8,9
 784 1063 784 1063 801 1008 c 1,10,-1
 671 961 l 1,11,12
 632 1095 632 1095 484.5 1095.5 c 128,-1,13
 337 1096 337 1096 285 1009 c 0,14,15
 268 982 268 982 268.5 943 c 0,16,17
 269.837796867 838.651844366 269.837796867 838.651844366 450 768 c 0,18,19
 501 747 501 747 596 710 c 128,-1,20
 691 673 691 673 766 611 c 128,-1,21
 841 549 841 549 841 416.5 c 128,-1,22
 841 284 841 284 676 180 c 1,23,24
 812 100 812 100 812 -36.5 c 128,-1,25
 812 -173 812 -173 720 -253 c 128,-1,26
 628 -333 628 -333 500 -333 c 0,27,28
 272 -333 272 -333 166 -166 c 1,29,-1
 272 -80 l 1,30,31
 337 -205 337 -205 487 -205 c 1,32,33
 566 -204 566 -204 616 -163.5 c 128,-1,34
 666 -123 666 -123 666 -70 c 128,-1,35
 666 -17 666 -17 630.759701493 28.3089552239 c 128,-1,36
 595.519402985 73.6179104478 595.519402985 73.6179104478 460.759701493 124.808955224 c 128,-1,37
 326 176 326 176 274 201 c 0,0,1
344 651 m 1,38,39
 222 577.8 222 577.8 222 485.65 c 128,-1,40
 222 393.5 222 393.5 334 337.5 c 0,41,42
 385 312 385 312 450 287.5 c 128,-1,43
 515 263 515 263 582 229 c 1,44,45
 712 296 712 296 712 393.0625 c 128,-1,46
 712 490.125 712 490.125 595 547.5 c 0,47,48
 543 573 543 573 477 596 c 128,-1,49
 411 619 411 619 344 651 c 1,38,39
EndSplineSet
EndChar

StartChar: dieresis
Encoding: 168 168 124
Width: 595
Flags: W
LayerCount: 2
Fore
SplineSet
544 1145 m 1,0,-1
 544 986 l 1,1,-1
 386 986 l 1,2,-1
 386 1145 l 1,3,-1
 544 1145 l 1,0,-1
220 1145 m 1,4,-1
 220 986 l 1,5,-1
 60 986 l 1,6,-1
 60 1145 l 1,7,-1
 220 1145 l 1,4,-1
EndSplineSet
EndChar

StartChar: copyright
Encoding: 169 169 125
Width: 1480
Flags: W
LayerCount: 2
Fore
SplineSet
225 1033.5 m 128,-1,1
 390 1218 390 1218 684.5 1218 c 128,-1,2
 979 1218 979 1218 1143.5 1033.5 c 128,-1,3
 1308 849 1308 849 1308 597.5 c 128,-1,4
 1308 346 1308 346 1143.5 163.5 c 128,-1,5
 979 -19 979 -19 684.5 -19 c 128,-1,6
 390 -19 390 -19 225 163.5 c 128,-1,7
 60 346 60 346 60 597.5 c 128,-1,0
 60 849 60 849 225 1033.5 c 128,-1,1
181 598 m 256,8,9
 181 387 181 387 313.5 232 c 128,-1,10
 446 77 446 77 682.5 77 c 128,-1,11
 919 77 919 77 1052.5 232 c 128,-1,12
 1186 387 1186 387 1187 598 c 1,13,14
 1186 809 1186 809 1053.5 964.5 c 128,-1,15
 921 1120 921 1120 683 1120 c 128,-1,16
 445 1120 445 1120 313 964.5 c 128,-1,17
 181 809 181 809 181 598 c 256,8,9
684 824 m 0,18,19
 493 824 493 824 493 603 c 0,20,21
 493 449 493 449 601 399 c 0,22,23
 636 383 636 383 682 383 c 0,24,25
 822 383 822 383 887 488 c 1,26,-1
 954 420 l 1,27,28
 870 288 870 288 698.5 287.5 c 128,-1,29
 527 287 527 287 450 383 c 128,-1,30
 373 479 373 479 373 609.5 c 128,-1,31
 373 740 373 740 460 829 c 128,-1,32
 547 918 547 918 676.991444489 917.432351771 c 128,-1,33
 806.982888977 916.864703542 806.982888977 916.864703542 850 838 c 1,34,-1
 848 907 l 1,35,-1
 947 907 l 1,36,-1
 947 691 l 1,37,-1
 850 691 l 1,38,39
 818 824 818 824 684 824 c 0,18,19
EndSplineSet
EndChar

StartChar: ordfeminine
Encoding: 170 170 126
Width: 724
Flags: W
LayerCount: 2
Fore
SplineSet
37 737 m 0,0,1
 37 944 37 944 282 944 c 0,2,3
 382 944 382 944 460 929 c 1,4,-1
 460 1005 l 2,5,6
 460 1125 460 1125 330.5 1125 c 128,-1,7
 201 1125 201 1125 147 1055 c 1,8,-1
 75 1130 l 1,9,10
 162 1218 162 1218 310 1218.5 c 0,11,12
 576 1219.39864865 576 1219.39864865 576 1010 c 2,13,-1
 576 666 l 1,14,-1
 688 666 l 1,15,-1
 688 577 l 1,16,-1
 472 577 l 1,17,-1
 471 642 l 1,18,19
 358 563 358 563 256 562.5 c 128,-1,20
 154 562 154 562 95.5 616 c 128,-1,21
 37 670 37 670 37 737 c 0,0,1
148 746 m 0,22,23
 148 647 148 647 296 647 c 0,24,25
 384 647 384 647 460 717 c 1,26,-1
 460 853 l 1,27,-1
 317 865 l 1,28,29
 148 865 148 865 148 746 c 0,22,23
EndSplineSet
EndChar

StartChar: guillemotleft
Encoding: 171 171 127
Width: 1095
Flags: W
LayerCount: 2
Fore
SplineSet
138 609 m 1,0,-1
 464 980 l 1,1,-1
 571 980 l 1,2,-1
 356 575 l 1,3,-1
 571 171 l 1,4,-1
 464 171 l 1,5,-1
 138 541 l 1,6,-1
 138 609 l 1,0,-1
524 609 m 1,7,-1
 850 980 l 1,8,-1
 957 980 l 1,9,-1
 742 575 l 1,10,-1
 957 171 l 1,11,-1
 850 171 l 1,12,-1
 524 541 l 1,13,-1
 524 609 l 1,7,-1
EndSplineSet
EndChar

StartChar: logicalnot
Encoding: 172 172 128
Width: 1158
Flags: W
LayerCount: 2
Fore
SplineSet
1033 876 m 1,0,-1
 1033 316 l 1,1,-1
 911 316 l 1,2,-1
 911 753 l 1,3,-1
 58 753 l 1,4,-1
 58 876 l 1,5,-1
 1033 876 l 1,0,-1
EndSplineSet
EndChar

StartChar: registered
Encoding: 174 174 130
Width: 1392
Flags: W
LayerCount: 2
Fore
SplineSet
235.5 1033.5 m 128,-1,1
 400 1218 400 1218 694.5 1218 c 128,-1,2
 989 1218 989 1218 1154 1033.5 c 128,-1,3
 1319 849 1319 849 1319 597.5 c 128,-1,4
 1319 346 1319 346 1154 163.5 c 128,-1,5
 989 -19 989 -19 694.5 -19 c 128,-1,6
 400 -19 400 -19 235.5 163.5 c 128,-1,7
 71 346 71 346 71 597.5 c 128,-1,0
 71 849 71 849 235.5 1033.5 c 128,-1,1
191 598 m 256,8,9
 191 387 191 387 324 232 c 128,-1,10
 457 77 457 77 693.5 77 c 128,-1,11
 930 77 930 77 1063 232 c 128,-1,12
 1196 387 1196 387 1197 598 c 1,13,14
 1196 809 1196 809 1064 964.5 c 128,-1,15
 932 1120 932 1120 694 1120 c 128,-1,16
 456 1120 456 1120 323.5 964.5 c 128,-1,17
 191 809 191 809 191 598 c 256,8,9
934 762 m 0,18,19
 934 624 934 624 788 595 c 1,20,-1
 920 350 l 1,21,-1
 1003 350 l 1,22,-1
 1003 280 l 1,23,-1
 860 280 l 1,24,-1
 700 583 l 1,25,-1
 591 583 l 1,26,-1
 591 350 l 1,27,-1
 679 350 l 1,28,-1
 679 280 l 1,29,-1
 409 280 l 1,30,-1
 409 350 l 1,31,-1
 500 350 l 1,32,-1
 500 859 l 1,33,-1
 409 859 l 1,34,-1
 409 931 l 1,35,-1
 720 931 l 2,36,37
 831 931 831 931 882.5 884.5 c 128,-1,38
 934 838 934 838 934 762 c 0,18,19
841 762 m 1,39,40
 841 859 841 859 712 859 c 2,41,-1
 591 859 l 1,42,-1
 591 656 l 1,43,-1
 717 656 l 2,44,45
 815 656 815 656 836 724 c 0,46,47
 842 743 842 743 841 762 c 1,39,40
EndSplineSet
EndChar

StartChar: macron
Encoding: 175 175 131
Width: 617
Flags: W
LayerCount: 2
Fore
SplineSet
136 1218 m 1,0,-1
 475 1218 l 1,1,-1
 475 1129 l 1,2,-1
 136 1129 l 1,3,-1
 136 1218 l 1,0,-1
EndSplineSet
EndChar

StartChar: degree
Encoding: 176 176 132
Width: 679
Flags: W
LayerCount: 2
Fore
SplineSet
219.5 1079 m 128,-1,1
 171 1030 171 1030 171.5 940 c 128,-1,2
 172 850 172 850 272 806 c 0,3,4
 304 792 304 792 357 792 c 128,-1,5
 410 792 410 792 459 841 c 128,-1,6
 508 890 508 890 508 957.5 c 128,-1,7
 508 1025 508 1025 462 1076.5 c 128,-1,8
 416 1128 416 1128 342 1128 c 128,-1,0
 268 1128 268 1128 219.5 1079 c 128,-1,1
340 1218 m 256,9,10
 452 1218 452 1218 530 1142 c 128,-1,11
 608 1066 608 1066 608 958.5 c 128,-1,12
 608 851 608 851 529 775 c 128,-1,13
 450 699 450 699 339 699.5 c 128,-1,14
 228 700 228 700 149.5 776.5 c 128,-1,15
 71 853 71 853 71 959 c 128,-1,16
 71 1065 71 1065 149.5 1141.5 c 128,-1,17
 228 1218 228 1218 340 1218 c 256,9,10
EndSplineSet
EndChar

StartChar: plusminus
Encoding: 177 177 133
Width: 1191
Flags: W
LayerCount: 2
Fore
SplineSet
658 699 m 1,0,-1
 658 305 l 1,1,-1
 530 305 l 1,2,-1
 530 699 l 1,3,-1
 138 699 l 1,4,-1
 138 825 l 1,5,-1
 530 825 l 1,6,-1
 530 1218 l 1,7,-1
 658 1218 l 1,8,-1
 658 825 l 1,9,-1
 1052 825 l 1,10,-1
 1052 699 l 1,11,-1
 658 699 l 1,0,-1
1052 0 m 1,12,-1
 138 0 l 1,13,-1
 138 126 l 1,14,-1
 1052 126 l 1,15,-1
 1052 0 l 1,12,-1
EndSplineSet
EndChar

StartChar: uni00B2
Encoding: 178 178 134
Width: 777
Flags: W
LayerCount: 2
Fore
SplineSet
113 888 m 1,0,1
 113 1218 113 1218 389 1218 c 0,2,3
 542 1218 542 1218 612.5 1145 c 128,-1,4
 683 1072 683 1072 683 977 c 0,5,6
 683 837 683 837 525 720 c 0,7,8
 480 686 480 686 407 636 c 128,-1,9
 334 586 334 586 282.5 535.5 c 128,-1,10
 231 485 231 485 216 417 c 1,11,-1
 581 417 l 1,12,-1
 581 604 l 1,13,-1
 679 604 l 1,14,-1
 679 312 l 1,15,-1
 90 312 l 1,16,17
 90 524 90 524 268 670 c 0,18,19
 317 709 317 709 390 761.5 c 128,-1,20
 463 814 463 814 508.5 861.5 c 128,-1,21
 554 909 554 909 554 973 c 0,22,23
 554 1113 554 1113 390 1113 c 0,24,25
 298 1113 298 1113 261.5 1061.5 c 128,-1,26
 225 1010 225 1010 225 888 c 1,27,-1
 113 888 l 1,0,1
EndSplineSet
EndChar

StartChar: uni00B3
Encoding: 179 179 135
Width: 814
Flags: W
LayerCount: 2
Fore
SplineSet
209 579 m 1,0,1
 226.035294118 398 226.035294118 398 406 398 c 0,2,3
 497 398 497 398 551 441.5 c 128,-1,4
 605 485 605 485 605 541 c 128,-1,5
 605 597 605 597 593 628 c 0,6,7
 557 721 557 721 320 721 c 1,8,-1
 320 824 l 1,9,10
 535 824 535 824 565 902 c 0,11,12
 575 929 575 929 575 981 c 128,-1,13
 575 1033 575 1033 528.5 1072 c 128,-1,14
 482 1111 482 1111 397.5 1111.5 c 0,15,16
 241.083855254 1112.42553932 241.083855254 1112.42553932 232 958 c 1,17,-1
 116 979 l 1,18,19
 121 1087 121 1087 194.5 1152.5 c 128,-1,20
 268 1218 268 1218 388 1218 c 0,21,22
 607 1217 607 1217 674 1080 c 0,23,24
 695 1036 695 1036 695 979 c 0,25,26
 695 817 695 817 538 773 c 1,27,28
 730 737.131868132 730 737.131868132 730 542 c 0,29,30
 730 441 730 441 640 367.5 c 128,-1,31
 550 294 550 294 366.5 293.5 c 128,-1,32
 183 293 183 293 116 451 c 0,33,34
 94 503 94 503 95 576 c 1,35,-1
 209 579 l 1,0,1
EndSplineSet
EndChar

StartChar: acute
Encoding: 180 180 136
Width: 584
Flags: W
LayerCount: 2
Fore
SplineSet
172 951 m 1,0,-1
 275 1218 l 1,1,-1
 490 1218 l 1,2,-1
 295 951 l 1,3,-1
 172 951 l 1,0,-1
EndSplineSet
EndChar

StartChar: uni00B5
Encoding: 181 181 137
AltUni2: 0003bc.ffffffff.0
Width: 962
Flags: W
LayerCount: 2
Fore
SplineSet
700 104 m 1,0,1
 483 -20 483 -20 413.065217391 -20 c 128,-1,2
 343.130434783 -20 343.130434783 -20 292 4 c 1,3,-1
 292 -383 l 1,4,-1
 158 -383 l 1,5,-1
 158 717 l 1,6,-1
 33 717 l 1,7,-1
 33 837 l 1,8,-1
 316 837 l 1,9,-1
 316 279 l 2,10,11
 316 111 316 111 446 111 c 0,12,13
 587 111 587 111 700 260 c 1,14,-1
 700 717 l 1,15,-1
 549 717 l 1,16,-1
 549 837 l 1,17,-1
 857 837 l 1,18,-1
 857 121 l 1,19,-1
 1009 121 l 1,20,-1
 1009 0 l 1,21,-1
 705 0 l 1,22,-1
 700 104 l 1,0,1
EndSplineSet
EndChar

StartChar: paragraph
Encoding: 182 182 138
Width: 1140
Flags: W
LayerCount: 2
Fore
SplineSet
1061 1078 m 1,0,-1
 917 1078 l 1,1,-1
 917 -333 l 1,2,-1
 777 -333 l 1,3,-1
 777 1078 l 1,4,-1
 568 1078 l 1,5,-1
 568 -333 l 1,6,-1
 427 -333 l 1,7,-1
 427 471 l 1,8,9
 254 476 254 476 153 580 c 128,-1,10
 52 684 52 684 52 845 c 128,-1,11
 52 1006 52 1006 160 1112 c 128,-1,12
 268 1218 268 1218 469 1218 c 2,13,-1
 1061 1218 l 1,14,-1
 1061 1078 l 1,0,-1
EndSplineSet
EndChar

StartChar: periodcentered
Encoding: 183 183 139
Width: 431
Flags: W
LayerCount: 2
Fore
SplineSet
89 683 m 1,0,-1
 326 683 l 1,1,-1
 326 464 l 1,2,-1
 89 464 l 1,3,-1
 89 683 l 1,0,-1
EndSplineSet
EndChar

StartChar: cedilla
Encoding: 184 184 140
Width: 610
Flags: W
LayerCount: 2
Fore
SplineSet
342 -364 m 0,0,1
 300 -378 300 -378 240 -378 c 128,-1,2
 180 -378 180 -378 133 -369 c 1,3,-1
 133 -274 l 1,4,5
 181 -282 181 -282 223 -282 c 0,6,7
 321 -282 321 -282 321 -229 c 128,-1,8
 321 -176 321 -176 219 -166 c 1,9,-1
 280 5 l 1,10,-1
 355 5 l 1,11,-1
 327 -124 l 1,12,13
 460 -139 460 -139 460 -227 c 0,14,15
 460 -327 460 -327 342 -364 c 0,0,1
EndSplineSet
EndChar

StartChar: uni00B9
Encoding: 185 185 141
Width: 495
Flags: W
LayerCount: 2
Fore
SplineSet
66 408 m 1,0,-1
 193 408 l 1,1,-1
 193 1101 l 1,2,-1
 59 1101 l 1,3,-1
 59 1199 l 1,4,-1
 309 1199 l 1,5,-1
 309 408 l 1,6,-1
 427 408 l 1,7,-1
 427 311 l 1,8,-1
 66 311 l 1,9,-1
 66 408 l 1,0,-1
EndSplineSet
EndChar

StartChar: ordmasculine
Encoding: 186 186 142
Width: 732
Flags: W
LayerCount: 2
Fore
SplineSet
238 1067.5 m 128,-1,1
 187 1018 187 1018 187 942.5 c 128,-1,2
 187 867 187 867 239 817.5 c 128,-1,3
 291 768 291 768 366.5 768 c 128,-1,4
 442 768 442 768 494 817 c 1,5,6
 545 867 545 867 545 942 c 128,-1,7
 545 1017 545 1017 494 1067 c 128,-1,8
 443 1117 443 1117 366 1117 c 128,-1,0
 289 1117 289 1117 238 1067.5 c 128,-1,1
156 747 m 128,-1,10
 71 826 71 826 71 944.5 c 128,-1,11
 71 1063 71 1063 156 1140 c 128,-1,12
 241 1217 241 1217 367.5 1217.5 c 128,-1,13
 494 1218 494 1218 578 1140 c 128,-1,14
 662 1062 662 1062 662 944 c 128,-1,15
 662 826 662 826 578 747.5 c 128,-1,16
 494 669 494 669 367.5 668.5 c 128,-1,9
 241 668 241 668 156 747 c 128,-1,10
EndSplineSet
EndChar

StartChar: guillemotright
Encoding: 187 187 143
Width: 1095
Flags: W
LayerCount: 2
Fore
SplineSet
957 541 m 1,0,-1
 630 171 l 1,1,-1
 524 171 l 1,2,-1
 739 575 l 1,3,-1
 524 980 l 1,4,-1
 630 980 l 1,5,-1
 957 609 l 1,6,-1
 957 541 l 1,0,-1
571 541 m 1,7,-1
 245 171 l 1,8,-1
 138 171 l 1,9,-1
 354 575 l 1,10,-1
 138 980 l 1,11,-1
 245 980 l 1,12,-1
 571 609 l 1,13,-1
 571 541 l 1,7,-1
EndSplineSet
EndChar

StartChar: onequarter
Encoding: 188 188 144
Width: 1732
Flags: W
LayerCount: 2
Fore
SplineSet
952 1217 m 1,0,-1
 1044 1217 l 1,1,-1
 614 0 l 1,2,-1
 520 0 l 1,3,-1
 952 1217 l 1,0,-1
66 408 m 1,4,-1
 193 408 l 1,5,-1
 193 1101 l 1,6,-1
 59 1101 l 1,7,-1
 59 1199 l 1,8,-1
 309 1199 l 1,9,-1
 309 408 l 1,10,-1
 427 408 l 1,11,-1
 427 311 l 1,12,-1
 66 311 l 1,13,-1
 66 408 l 1,4,-1
1610 98 m 1,14,-1
 1610 0 l 1,15,-1
 1228 0 l 1,16,-1
 1228 98 l 1,17,-1
 1366 98 l 1,18,-1
 1366 264 l 1,19,-1
 980 264 l 1,20,-1
 980 366 l 1,21,-1
 1369 968 l 1,22,-1
 1485 968 l 1,23,-1
 1485 366 l 1,24,-1
 1644 366 l 1,25,-1
 1644 264 l 1,26,-1
 1485 264 l 1,27,-1
 1485 98 l 1,28,-1
 1610 98 l 1,14,-1
1366 366 m 1,29,-1
 1366 796 l 1,30,-1
 1101 366 l 1,31,-1
 1366 366 l 1,29,-1
EndSplineSet
EndChar

StartChar: onehalf
Encoding: 189 189 145
Width: 1758
Flags: W
LayerCount: 2
Fore
SplineSet
952 1217 m 1,0,-1
 1044 1217 l 1,1,-1
 614 0 l 1,2,-1
 520 0 l 1,3,-1
 952 1217 l 1,0,-1
66 408 m 1,4,-1
 193 408 l 1,5,-1
 193 1101 l 1,6,-1
 59 1101 l 1,7,-1
 59 1199 l 1,8,-1
 309 1199 l 1,9,-1
 309 408 l 1,10,-1
 427 408 l 1,11,-1
 427 311 l 1,12,-1
 66 311 l 1,13,-1
 66 408 l 1,4,-1
1084 561 m 1,14,15
 1084 890 1084 890 1359 890 c 0,16,17
 1512 890 1512 890 1583 817.5 c 128,-1,18
 1654 745 1654 745 1654 649 c 0,19,20
 1654 510 1654 510 1496 392 c 1,21,22
 1451 360 1451 360 1377.5 309.5 c 128,-1,23
 1304 259 1304 259 1253 208.5 c 128,-1,24
 1202 158 1202 158 1187 89 c 1,25,-1
 1552 89 l 1,26,-1
 1552 277 l 1,27,-1
 1649 277 l 1,28,-1
 1649 -16 l 1,29,-1
 1061 -16 l 1,30,31
 1061 196 1061 196 1239 341 c 0,32,33
 1288 381 1288 381 1361.5 435 c 128,-1,34
 1435 489 1435 489 1480 535 c 128,-1,35
 1525 581 1525 581 1525 646 c 0,36,37
 1525 785 1525 785 1360 785 c 1,38,39
 1269 784 1269 784 1232 732.5 c 128,-1,40
 1195 681 1195 681 1195 561 c 1,41,-1
 1084 561 l 1,14,15
EndSplineSet
EndChar

StartChar: threequarters
Encoding: 190 190 146
Width: 2013
Flags: W
LayerCount: 2
Fore
SplineSet
1192 1217 m 1,0,-1
 1284 1217 l 1,1,-1
 854 0 l 1,2,-1
 760 0 l 1,3,-1
 1192 1217 l 1,0,-1
214 579 m 1,4,5
 233.164705882 398 233.164705882 398 411 398 c 0,6,7
 502 398 502 398 556 441.5 c 128,-1,8
 610 485 610 485 610 541 c 0,9,10
 609 597 609 597 597 628 c 0,11,12
 558 721 558 721 326 721 c 1,13,-1
 326 824 l 1,14,15
 540 824 540 824 570 902 c 0,16,17
 580 929 580 929 580 980.5 c 128,-1,18
 580 1032 580 1032 533 1071.5 c 128,-1,19
 486 1111 486 1111 402 1111.5 c 0,20,21
 246.0840042 1112.4280714 246.0840042 1112.4280714 237 958 c 1,22,-1
 122 979 l 1,23,24
 126 1087 126 1087 200 1152.5 c 128,-1,25
 274 1218 274 1218 393 1218 c 0,26,27
 612 1217 612 1217 678 1080 c 0,28,29
 699 1036 699 1036 700 979 c 1,30,31
 700 817 700 817 543 773 c 1,32,33
 735 737.131868132 735 737.131868132 735 541.5 c 0,34,35
 735 440 735 440 645.5 367 c 128,-1,36
 556 294 556 294 372.5 293.5 c 128,-1,37
 189 293 189 293 123 451 c 1,38,39
 100 503 100 503 100 576 c 1,40,-1
 214 579 l 1,4,5
1829 98 m 1,41,-1
 1829 0 l 1,42,-1
 1448 0 l 1,43,-1
 1448 98 l 1,44,-1
 1585 98 l 1,45,-1
 1585 264 l 1,46,-1
 1199 264 l 1,47,-1
 1199 366 l 1,48,-1
 1588 968 l 1,49,-1
 1705 968 l 1,50,-1
 1705 366 l 1,51,-1
 1864 366 l 1,52,-1
 1864 264 l 1,53,-1
 1705 264 l 1,54,-1
 1705 98 l 1,55,-1
 1829 98 l 1,41,-1
1585 366 m 1,56,-1
 1585 796 l 1,57,-1
 1321 366 l 1,58,-1
 1585 366 l 1,56,-1
EndSplineSet
EndChar

StartChar: AE
Encoding: 198 198 154
Width: 1802
Flags: W
LayerCount: 2
Fore
SplineSet
1626 865 m 1,0,-1
 1488 865 l 1,1,-1
 1435 1078 l 1,2,-1
 902 1078 l 1,3,-1
 996 681 l 1,4,-1
 1373 681 l 1,5,-1
 1348 800 l 1,6,-1
 1449 800 l 1,7,-1
 1537 426 l 1,8,-1
 1435 426 l 1,9,-1
 1395 570 l 1,10,-1
 1021 570 l 1,11,-1
 1133 121 l 1,12,-1
 1643 121 l 1,13,-1
 1589 341 l 1,14,-1
 1723 341 l 1,15,-1
 1804 0 l 1,16,-1
 774 0 l 1,17,-1
 786 121 l 1,18,-1
 965 121 l 1,19,-1
 888 441 l 1,20,-1
 409 441 l 1,21,-1
 298 121 l 1,22,-1
 459 121 l 1,23,-1
 447 0 l 1,24,-1
 -24 0 l 1,25,-1
 -12 121 l 1,26,-1
 126 121 l 1,27,-1
 516 1078 l 1,28,-1
 410 1078 l 1,29,-1
 426 1199 l 1,30,-1
 1546 1199 l 1,31,-1
 1626 865 l 1,0,-1
858 567 m 1,32,-1
 735 1078 l 1,33,-1
 665 1078 l 1,34,-1
 460 567 l 1,35,-1
 858 567 l 1,32,-1
EndSplineSet
EndChar

StartChar: Eth
Encoding: 208 208 164
Width: 1322
Flags: W
LayerCount: 2
Fore
SplineSet
1247 620 m 0,0,1
 1247 0 1247 0 623 0 c 2,2,-1
 61 0 l 1,3,-1
 61 121 l 1,4,-1
 227 121 l 1,5,-1
 227 526 l 1,6,-1
 63 526 l 1,7,-1
 63 676 l 1,8,-1
 227 676 l 1,9,-1
 227 1078 l 1,10,-1
 61 1078 l 1,11,-1
 61 1199 l 1,12,-1
 638 1199 l 2,13,14
 1062 1199 1062 1199 1195 888 c 0,15,16
 1247 768 1247 768 1247 620 c 0,0,1
395 676 m 1,17,-1
 601 676 l 1,18,-1
 601 526 l 1,19,-1
 395 526 l 1,20,-1
 395 121 l 1,21,-1
 650 121 l 2,22,23
 865 121 865 121 970 256 c 128,-1,24
 1075 391 1075 391 1075 604 c 0,25,26
 1075 936 1075 936 839 1041 c 0,27,28
 755 1078 755 1078 633 1078 c 2,29,-1
 395 1078 l 1,30,-1
 395 676 l 1,17,-1
EndSplineSet
EndChar

StartChar: multiply
Encoding: 215 215 171
Width: 966
Flags: W
LayerCount: 2
Fore
SplineSet
406 451 m 1,0,-1
 187 670 l 1,1,-1
 274 756 l 1,2,-1
 492 538 l 1,3,-1
 711 756 l 1,4,-1
 798 670 l 1,5,-1
 578 451 l 1,6,-1
 798 234 l 1,7,-1
 710 149 l 1,8,-1
 492 366 l 1,9,-1
 275 149 l 1,10,-1
 187 234 l 1,11,-1
 406 451 l 1,0,-1
EndSplineSet
EndChar

StartChar: Oslash
Encoding: 216 216 172
Width: 1374
Flags: W
LayerCount: 2
Fore
SplineSet
363 59 m 1,0,1
 69 225 69 225 69 620 c 0,2,3
 69 728 69 728 111.5 841.5 c 128,-1,4
 154 955 154 955 233.5 1038.5 c 128,-1,5
 313 1122 313 1122 428 1170 c 128,-1,6
 543 1218 543 1218 679.5 1218 c 128,-1,7
 816 1218 816 1218 930 1175 c 1,8,-1
 985 1284 l 1,9,-1
 1083 1240 l 1,10,-1
 1026 1128 l 1,11,12
 1306 958 1306 958 1306 576 c 0,13,14
 1306 469 1306 469 1263.5 356 c 128,-1,15
 1221 243 1221 243 1141 160 c 0,16,17
 967 -20 967 -20 686 -20 c 0,18,19
 565 -20 565 -20 461 16 c 1,20,-1
 405 -96 l 1,21,-1
 307 -51 l 1,22,-1
 363 59 l 1,0,1
862 1042 m 1,23,24
 781 1078 781 1078 684 1078 c 0,25,26
 496 1078 496 1078 374.5 940.5 c 128,-1,27
 253 803 253 803 253 598 c 0,28,29
 253 474 253 474 300.5 370 c 128,-1,30
 348 266 348 266 435 202 c 1,31,-1
 862 1042 l 1,23,24
954 986 m 1,32,-1
 529 149 l 1,33,34
 599 121 599 121 692 121 c 128,-1,35
 785 121 785 121 865.5 159 c 128,-1,36
 946 197 946 197 1003 261.5 c 128,-1,37
 1060 326 1060 326 1090.5 412.5 c 128,-1,38
 1121 499 1121 499 1121 609 c 128,-1,39
 1121 719 1121 719 1077.5 819.5 c 128,-1,40
 1034 920 1034 920 954 986 c 1,32,-1
EndSplineSet
EndChar

StartChar: Thorn
Encoding: 222 222 178
Width: 1071
Flags: W
LayerCount: 2
Fore
SplineSet
66 121 m 1,0,-1
 223 121 l 1,1,-1
 223 1078 l 1,2,-1
 66 1078 l 1,3,-1
 66 1199 l 1,4,-1
 389 1199 l 1,5,-1
 389 1041 l 1,6,-1
 620 1041 l 1,7,8
 844 1042 844 1042 951 921 c 0,9,10
 1032 829 1032 829 1032 699 c 128,-1,11
 1032 569 1032 569 995.5 497.5 c 128,-1,12
 959 426 959 426 894 385 c 0,13,14
 778 312 778 312 543 312 c 2,15,-1
 391 312 l 1,16,-1
 391 121 l 1,17,-1
 555 121 l 1,18,-1
 555 0 l 1,19,-1
 66 0 l 1,20,-1
 66 121 l 1,0,-1
389 442 m 1,21,-1
 574 442 l 2,22,23
 803 442 803 442 847 587 c 1,24,25
 859 630 859 630 860 681 c 1,26,27
 860 795 860 795 799 852 c 128,-1,28
 738 909 738 909 625 909 c 2,29,-1
 389 909 l 1,30,-1
 389 442 l 1,21,-1
EndSplineSet
EndChar

StartChar: germandbls
Encoding: 223 223 179
Width: 1159
Flags: W
LayerCount: 2
Fore
SplineSet
620 1089 m 0,0,1
 376 1089 376 1089 376 822 c 2,2,-1
 376 121 l 1,3,-1
 513 121 l 1,4,-1
 513 0 l 1,5,-1
 75 0 l 1,6,-1
 75 121 l 1,7,-1
 231 121 l 1,8,-1
 231 817 l 2,9,10
 231 1111 231 1111 447 1191 c 0,11,12
 520 1218 520 1218 608 1218 c 0,13,14
 771 1218 771 1218 866 1137.5 c 128,-1,15
 961 1057 961 1057 962 925 c 1,16,17
 962 724 962 724 778 667 c 1,18,19
 992 631 992 631 1057 471 c 0,20,21
 1103 358 1103 358 1052 216 c 0,22,23
 1029 150 1029 150 976 102 c 0,24,25
 862 0 862 0 638 0 c 1,26,-1
 638 121 l 1,27,28
 925 121 925 121 925 360 c 1,29,30
 926 524 926 524 751 574 c 0,31,32
 688 593 688 593 596 592 c 1,33,-1
 596 702 l 1,34,35
 707 702 707 702 760 764 c 128,-1,36
 813 826 813 826 813 909.5 c 128,-1,37
 813 993 813 993 760.5 1041 c 128,-1,38
 708 1089 708 1089 620 1089 c 0,0,1
EndSplineSet
EndChar

StartChar: ae
Encoding: 230 230 186
Width: 1511
Flags: W
LayerCount: 2
Fore
SplineSet
1057 -24 m 0,0,1
 846 -24 846 -24 714 107 c 1,2,3
 513 -19 513 -19 345 -17 c 1,4,5
 216 -17 216 -17 137 56 c 128,-1,6
 58 129 58 129 57 230 c 1,7,8
 57 489 57 489 418 489 c 0,9,10
 513 489 513 489 619 468 c 1,11,-1
 619 569 l 2,12,13
 619 737 619 737 415 737 c 0,14,15
 284 737 284 737 223 651 c 1,16,-1
 77 692 l 1,17,18
 175 860 175 860 436 860 c 0,19,20
 654 860 654 860 730 707 c 1,21,22
 859 860 859 860 1050.5 860.5 c 128,-1,23
 1242 861 1242 861 1346 727.5 c 128,-1,24
 1450 594 1450 594 1450 397 c 2,25,-1
 1450 378 l 1,26,-1
 789 380 l 1,27,28
 813 185 813 185 952 125 c 1,29,30
 998 104 998 104 1060 105 c 1,31,32
 1224 105 1224 105 1317 226 c 1,33,-1
 1450 167 l 1,34,35
 1330 -24 1330 -24 1057 -24 c 0,0,1
1301 486 m 1,36,37
 1273 660 1273 660 1150 721 c 0,38,39
 1109 742 1109 742 1054 742 c 0,40,41
 946 742 946 742 877.5 670.5 c 128,-1,42
 809 599 809 599 794 486 c 1,43,-1
 1301 486 l 1,36,37
340 100 m 0,44,45
 518 100 518 100 619 185 c 1,46,-1
 619 366 l 1,47,48
 586 367 586 367 535.5 375 c 128,-1,49
 485 383 485 383 428 383 c 0,50,51
 204 383 204 383 204 230 c 0,52,53
 204 174 204 174 244 137 c 128,-1,54
 284 100 284 100 340 100 c 0,44,45
EndSplineSet
EndChar

StartChar: eth
Encoding: 240 240 196
Width: 985
Flags: W
LayerCount: 2
Fore
SplineSet
473 1218 m 0,0,1
 705 1218 705 1218 816 1013 c 1,2,-1
 984 1046 l 1,3,-1
 1006 941 l 1,4,-1
 858 912 l 1,5,6
 902 776 902 776 902 612 c 0,7,8
 902 301 902 301 792.5 141 c 128,-1,9
 683 -19 683 -19 472 -19 c 0,10,11
 294 -19 294 -19 191 95.5 c 128,-1,12
 88 210 88 210 88 376.5 c 128,-1,13
 88 543 88 543 186 647 c 0,14,15
 285 751 285 751 462 751.5 c 128,-1,16
 639 752 639 752 745 665 c 1,17,18
 745 785 745 785 713 883 c 1,19,-1
 478 836 l 1,20,-1
 458 941 l 1,21,-1
 666 983 l 1,22,23
 592 1087 592 1087 458 1087 c 128,-1,24
 324 1087 324 1087 217 1008 c 1,25,-1
 160 1125 l 1,26,27
 277 1218 277 1218 473 1218 c 0,0,1
738 529 m 1,28,29
 623 616 623 616 450 616 c 0,30,31
 360 616 360 616 299.5 550 c 128,-1,32
 239 484 239 484 239 376 c 0,33,34
 239 200 239 200 374 140 c 0,35,36
 419 121 419 121 478 121 c 0,37,38
 603 121 603 121 663.5 224.5 c 128,-1,39
 724 328 724 328 738 529 c 1,28,29
EndSplineSet
EndChar

StartChar: divide
Encoding: 247 247 203
Width: 1211
Flags: W
LayerCount: 2
Fore
SplineSet
968 617 m 1,0,-1
 968 494 l 1,1,-1
 229 494 l 1,2,-1
 229 617 l 1,3,-1
 968 617 l 1,0,-1
521 982 m 1,4,-1
 680 982 l 1,5,-1
 680 824 l 1,6,-1
 521 824 l 1,7,-1
 521 982 l 1,4,-1
521 286 m 1,8,-1
 680 286 l 1,9,-1
 680 126 l 1,10,-1
 521 126 l 1,11,-1
 521 286 l 1,8,-1
EndSplineSet
EndChar

StartChar: oslash
Encoding: 248 248 204
Width: 1005
Flags: W
LayerCount: 2
Fore
SplineSet
358 1 m 1,0,-1
 290 -131 l 1,1,-1
 192 -86 l 1,2,-1
 259 45 l 1,3,4
 164 103 164 103 111.5 200.5 c 128,-1,5
 59 298 59 298 59 404 c 0,6,7
 59 604 59 604 181 728.5 c 128,-1,8
 303 853 303 853 503 853 c 0,9,10
 589 853 589 853 660 828 c 1,11,-1
 730 963 l 1,12,-1
 828 918 l 1,13,-1
 757 781 l 1,14,15
 848 723 848 723 897 628.5 c 128,-1,16
 946 534 946 534 946 431 c 128,-1,17
 946 328 946 328 915 248 c 128,-1,18
 884 168 884 168 826 109 c 128,-1,19
 768 50 768 50 685.5 15.5 c 128,-1,20
 603 -19 603 -19 515.5 -19 c 128,-1,21
 428 -19 428 -19 358 1 c 1,0,-1
598 705 m 1,22,23
 553 722 553 722 495 722 c 0,24,25
 374 722 374 722 299.5 635.5 c 128,-1,26
 225 549 225 549 225 404 c 128,-1,27
 225 259 225 259 324 173 c 1,28,-1
 598 705 l 1,22,23
690 649 m 1,29,-1
 420 122 l 1,30,31
 456 111 456 111 511 111 c 0,32,33
 628 111 628 111 704 197.5 c 128,-1,34
 780 284 780 284 780 423.5 c 128,-1,35
 780 563 780 563 690 649 c 1,29,-1
EndSplineSet
EndChar

StartChar: thorn
Encoding: 254 254 210
Width: 1067
Flags: W
LayerCount: 2
Fore
SplineSet
332 735 m 1,0,1
 460 853 460 853 644 853 c 128,-1,2
 828 853 828 853 940 730 c 128,-1,3
 1052 607 1052 607 1053.5 422 c 128,-1,4
 1055 237 1055 237 940.5 109 c 128,-1,5
 826 -19 826 -19 639 -19 c 0,6,7
 494 -19 494 -19 388 58 c 0,8,9
 354 83 354 83 331 115 c 1,10,-1
 331 -315 l 1,11,-1
 25 -315 l 1,12,-1
 25 -186 l 1,13,-1
 175 -186 l 1,14,-1
 175 1078 l 1,15,-1
 26 1078 l 1,16,-1
 26 1199 l 1,17,-1
 332 1199 l 1,18,-1
 332 735 l 1,0,1
332 238 m 1,19,20
 509 124 509 124 605 111 c 1,21,22
 734 111 734 111 809 196.5 c 128,-1,23
 884 282 884 282 884 412.5 c 0,24,25
 884 543 884 543 807 632.5 c 128,-1,26
 730 722 730 722 592 722 c 128,-1,27
 454 722 454 722 332 587 c 1,28,-1
 332 238 l 1,19,20
EndSplineSet
EndChar

StartChar: hbar
Encoding: 295 295 212
Width: 1065
Flags: W
LayerCount: 2
Fore
SplineSet
762 549 m 2,0,1
 762 722 762 722 616 722 c 128,-1,2
 470 722 470 722 335 631 c 1,3,-1
 335 121 l 1,4,-1
 486 121 l 1,5,-1
 486 0 l 1,6,-1
 22 0 l 1,7,-1
 22 121 l 1,8,-1
 180 121 l 1,9,-1
 180 917 l 1,10,-1
 89 917 l 1,11,-1
 89 1006 l 1,12,-1
 180 1006 l 1,13,-1
 180 1078 l 1,14,-1
 24 1078 l 1,15,-1
 24 1199 l 1,16,-1
 335 1199 l 1,17,-1
 335 1006 l 1,18,-1
 428 1006 l 1,19,-1
 428 917 l 1,20,-1
 335 917 l 1,21,-1
 335 755 l 1,22,23
 483 853 483 853 651 853 c 0,24,25
 916 853 916 853 916 578 c 2,26,-1
 916 121 l 1,27,-1
 1066 121 l 1,28,-1
 1066 0 l 1,29,-1
 656 0 l 1,30,-1
 656 121 l 1,31,-1
 762 121 l 1,32,-1
 762 549 l 2,0,1
EndSplineSet
EndChar

StartChar: dotlessi
Encoding: 305 305 215
Width: 529
Flags: W
LayerCount: 2
Fore
SplineSet
61 118 m 1,0,-1
 202 118 l 1,1,-1
 202 717 l 1,2,-1
 61 717 l 1,3,-1
 61 837 l 1,4,-1
 357 837 l 1,5,-1
 357 118 l 1,6,-1
 498 118 l 1,7,-1
 498 0 l 1,8,-1
 61 0 l 1,9,-1
 61 118 l 1,0,-1
EndSplineSet
EndChar

StartChar: kgreenlandic
Encoding: 312 312 221
Width: 1035
Flags: W
LayerCount: 2
Fore
SplineSet
21 121 m 1,0,-1
 180 121 l 1,1,-1
 180 717 l 1,2,-1
 21 717 l 1,3,-1
 21 837 l 1,4,-1
 334 837 l 1,5,-1
 334 437 l 1,6,-1
 676 717 l 1,7,-1
 531 717 l 1,8,-1
 531 837 l 1,9,-1
 996 837 l 1,10,-1
 996 717 l 1,11,-1
 859 717 l 1,12,-1
 514 421 l 1,13,-1
 869 121 l 1,14,-1
 1005 121 l 1,15,-1
 1005 0 l 1,16,-1
 567 0 l 1,17,-1
 567 121 l 1,18,-1
 677 121 l 1,19,-1
 334 411 l 1,20,-1
 334 121 l 1,21,-1
 443 121 l 1,22,-1
 443 0 l 1,23,-1
 21 0 l 1,24,-1
 21 121 l 1,0,-1
EndSplineSet
EndChar

StartChar: Lslash
Encoding: 321 321 224
Width: 1023
Flags: W
LayerCount: 2
Fore
SplineSet
61 0 m 1,0,-1
 61 121 l 1,1,-1
 226 121 l 1,2,-1
 226 532 l 1,3,-1
 62 468 l 1,4,-1
 62 602 l 1,5,-1
 226 667 l 1,6,-1
 226 1078 l 1,7,-1
 61 1078 l 1,8,-1
 61 1199 l 1,9,-1
 554 1199 l 1,10,-1
 554 1078 l 1,11,-1
 393 1078 l 1,12,-1
 393 733 l 1,13,-1
 652 837 l 1,14,-1
 652 703 l 1,15,-1
 393 599 l 1,16,-1
 393 121 l 1,17,-1
 820 121 l 1,18,-1
 820 470 l 1,19,-1
 970 470 l 1,20,-1
 970 0 l 1,21,-1
 61 0 l 1,0,-1
EndSplineSet
EndChar

StartChar: lslash
Encoding: 322 322 225
Width: 506
Flags: W
LayerCount: 2
Fore
SplineSet
22 0 m 1,0,-1
 22 121 l 1,1,-1
 180 121 l 1,2,-1
 180 521 l 1,3,-1
 37 468 l 1,4,-1
 37 602 l 1,5,-1
 180 657 l 1,6,-1
 180 1078 l 1,7,-1
 25 1078 l 1,8,-1
 25 1199 l 1,9,-1
 335 1199 l 1,10,-1
 335 718 l 1,11,-1
 491 778 l 1,12,-1
 491 636 l 1,13,-1
 335 578 l 1,14,-1
 335 121 l 1,15,-1
 473 121 l 1,16,-1
 473 0 l 1,17,-1
 22 0 l 1,0,-1
EndSplineSet
EndChar

StartChar: OE
Encoding: 338 338 228
Width: 1997
Flags: W
LayerCount: 2
Fore
SplineSet
1058 1099 m 1,0,-1
 1058 1199 l 1,1,-1
 1905 1199 l 1,2,-1
 1905 865 l 1,3,-1
 1768 865 l 1,4,-1
 1768 1078 l 1,5,-1
 1223 1078 l 1,6,-1
 1223 681 l 1,7,-1
 1600 681 l 1,8,-1
 1600 800 l 1,9,-1
 1704 800 l 1,10,-1
 1704 426 l 1,11,-1
 1598 426 l 1,12,-1
 1598 547 l 1,13,-1
 1225 547 l 1,14,-1
 1225 121 l 1,15,-1
 1771 121 l 1,16,-1
 1771 341 l 1,17,-1
 1905 341 l 1,18,-1
 1905 0 l 1,19,-1
 1058 0 l 1,20,-1
 1058 99 l 1,21,22
 907 -19 907 -19 649 -19 c 128,-1,23
 391 -19 391 -19 230 157 c 128,-1,24
 69 333 69 333 69 599 c 0,25,26
 69 865 69 865 230 1041 c 128,-1,27
 391 1217 391 1217 648.5 1217.5 c 128,-1,28
 906 1218 906 1218 1058 1099 c 1,0,-1
1058 970 m 1,29,30
 882 1078 882 1078 690.5 1079 c 0,31,32
 499 1080 499 1080 376.5 957 c 128,-1,33
 254 834 254 834 254 600 c 0,34,35
 254 366 254 366 383 243.5 c 128,-1,36
 512 121 512 121 700 121 c 128,-1,37
 888 121 888 121 1058 244 c 1,38,-1
 1058 970 l 1,29,30
EndSplineSet
EndChar

StartChar: oe
Encoding: 339 339 229
Width: 1714
Flags: W
LayerCount: 2
Fore
SplineSet
1622 163 m 1,0,1
 1504 -19 1504 -19 1249.18681319 -19 c 128,-1,2
 994.373626374 -19 994.373626374 -19 866 179 c 1,3,4
 739 -19 739 -19 501 -19 c 0,5,6
 303 -19 303 -19 181 107 c 128,-1,7
 59 233 59 233 58.5 417.5 c 128,-1,8
 58 602 58 602 180.5 727.5 c 128,-1,9
 303 853 303 853 503 853 c 0,10,11
 625 853 625 853 717.5 799.5 c 128,-1,12
 810 746 810 746 867 655 c 1,13,14
 928 747 928 747 1023.5 800 c 128,-1,15
 1119 853 1119 853 1229 853 c 0,16,17
 1435 853 1435 853 1543.5 719.5 c 128,-1,18
 1652 586 1652 586 1653 380 c 1,19,-1
 946 380 l 1,20,21
 953 258 953 258 1032.5 184.5 c 128,-1,22
 1112 111 1112 111 1240.5 111 c 128,-1,23
 1369 111 1369 111 1465 188 c 0,24,25
 1496 212 1496 212 1516 242 c 1,26,-1
 1622 163 l 1,0,1
703.5 635.5 m 128,-1,28
 627 722 627 722 501.5 722 c 128,-1,29
 376 722 376 722 300.5 635.5 c 128,-1,30
 225 549 225 549 225 417 c 128,-1,31
 225 285 225 285 300.5 198.5 c 128,-1,32
 376 112 376 112 501.5 112 c 128,-1,33
 627 112 627 112 703.5 198.5 c 128,-1,34
 780 285 780 285 780 417 c 128,-1,27
 780 549 780 549 703.5 635.5 c 128,-1,28
1503 486 m 1,35,36
 1490 591 1490 591 1420.5 656.5 c 128,-1,37
 1351 722 1351 722 1239 722 c 0,38,39
 1052 722 1052 722 982 582 c 1,40,41
 959 539 959 539 951 486 c 1,42,-1
 1503 486 l 1,35,36
EndSplineSet
EndChar

StartChar: florin
Encoding: 402 402 240
Width: 953
Flags: W
LayerCount: 2
Fore
SplineSet
814 977 m 1,0,1
 814 1134 814 1134 733 1134 c 0,2,3
 672 1134 672 1134 640 1083.5 c 128,-1,4
 608 1033 608 1033 588 928 c 2,5,-1
 553 749 l 1,6,-1
 774 749 l 1,7,-1
 756 661 l 1,8,-1
 535 661 l 1,9,-1
 417 62 l 1,10,11
 356 -254 356 -254 175 -314 c 0,12,13
 116 -333 116 -333 54.5 -333 c 128,-1,14
 -7 -333 -7 -333 -56 -319 c 1,15,-1
 -37 -232 l 1,16,17
 25 -244 25 -244 54 -244 c 0,18,19
 124 -244 124 -244 170.5 -175 c 128,-1,20
 217 -106 217 -106 251 63 c 2,21,-1
 369 661 l 1,22,-1
 198 661 l 1,23,-1
 215 749 l 1,24,-1
 384 749 l 1,25,-1
 416 914 l 2,26,27
 445 1060 445 1060 522.5 1139.5 c 128,-1,28
 600 1219 600 1219 726 1219 c 128,-1,29
 852 1219 852 1219 907.5 1183.5 c 128,-1,30
 963 1148 963 1148 963 1090 c 0,31,32
 963 978 963 978 814 977 c 1,0,1
EndSplineSet
EndChar

StartChar: uni0237
Encoding: 567 567 269
Width: 459
Flags: W
LayerCount: 2
Fore
SplineSet
11 717 m 1,0,-1
 11 837 l 1,1,-1
 327 837 l 1,2,-1
 327 20 l 2,3,4
 327 -149 327 -149 290.5 -205.5 c 128,-1,5
 254 -262 254 -262 194.5 -288.5 c 128,-1,6
 135 -315 135 -315 32 -315 c 2,7,-1
 -62 -315 l 1,8,-1
 -62 -186 l 1,9,-1
 49 -186 l 2,10,11
 118 -186 118 -186 144 -143.5 c 128,-1,12
 170 -101 170 -101 170 -8 c 2,13,-1
 170 717 l 1,14,-1
 11 717 l 1,0,-1
EndSplineSet
EndChar

StartChar: circumflex
Encoding: 710 710 270
Width: 617
Flags: W
LayerCount: 2
Fore
SplineSet
60 932 m 1,0,-1
 162 1218 l 1,1,-1
 448 1218 l 1,2,-1
 556 932 l 1,3,-1
 402 932 l 1,4,-1
 306 1171 l 1,5,-1
 209 932 l 1,6,-1
 60 932 l 1,0,-1
EndSplineSet
EndChar

StartChar: caron
Encoding: 711 711 271
Width: 617
Flags: W
LayerCount: 2
Fore
SplineSet
151 1218 m 1,0,-1
 311 1058 l 1,1,-1
 469 1218 l 1,2,-1
 577 1218 l 1,3,-1
 412 948 l 1,4,-1
 208 948 l 1,5,-1
 40 1218 l 1,6,-1
 151 1218 l 1,0,-1
EndSplineSet
EndChar

StartChar: breve
Encoding: 728 728 272
Width: 607
Flags: W
LayerCount: 2
Fore
SplineSet
150 1199 m 1,0,1
 172 1076 172 1076 304 1076 c 0,2,3
 366 1076 366 1076 407 1108 c 128,-1,4
 448 1140 448 1140 457 1199 c 1,5,-1
 572 1199 l 1,6,7
 556 1046 556 1046 407 994 c 0,8,9
 360 978 360 978 304 978 c 0,10,11
 193 978 193 978 118.5 1038 c 128,-1,12
 44 1098 44 1098 35 1199 c 1,13,-1
 150 1199 l 1,0,1
EndSplineSet
EndChar

StartChar: dotaccent
Encoding: 729 729 273
Width: 556
Flags: W
LayerCount: 2
Fore
SplineSet
279 1170 m 0,0,1
 342 1170 342 1170 366 1115 c 0,2,3
 373 1098 373 1098 373 1080 c 0,4,5
 374 1020 374 1020 316 995 c 0,6,7
 300 988 300 988 270 988 c 0,8,9
 240 988 240 988 212 1015 c 128,-1,10
 184 1042 184 1042 184 1080 c 0,11,12
 183 1118 183 1118 211 1144 c 128,-1,13
 239 1170 239 1170 279 1170 c 0,0,1
EndSplineSet
EndChar

StartChar: ring
Encoding: 730 730 274
Width: 588
Flags: W
LayerCount: 2
Fore
SplineSet
168.5 1202 m 128,-1,1
 218 1250 218 1250 292.5 1250 c 128,-1,2
 367 1250 367 1250 418 1202 c 128,-1,3
 469 1154 469 1154 469.5 1083.5 c 128,-1,4
 470 1013 470 1013 418 965 c 128,-1,5
 366 917 366 917 292.5 916.5 c 128,-1,6
 219 916 219 916 169 964.5 c 128,-1,7
 119 1013 119 1013 119 1083.5 c 128,-1,0
 119 1154 119 1154 168.5 1202 c 128,-1,1
336 1177 m 1,8,9
 316 1186 316 1186 282.5 1186 c 128,-1,10
 249 1186 249 1186 216.5 1156.5 c 128,-1,11
 184 1127 184 1127 184.5 1083.5 c 128,-1,12
 185 1040 185 1040 216.5 1011 c 128,-1,13
 248 982 248 982 293 981 c 1,14,15
 365 981 365 981 393 1043 c 0,16,17
 401 1062 401 1062 401 1084 c 0,18,19
 401 1152 401 1152 336 1177 c 1,8,9
EndSplineSet
EndChar

StartChar: ogonek
Encoding: 731 731 275
Width: 610
Flags: W
LayerCount: 2
Fore
SplineSet
205 0 m 1,0,-1
 323 0 l 1,1,2
 277 -64 277 -64 277 -131 c 0,3,4
 277 -242 277 -242 379 -242 c 0,5,6
 423 -242 423 -242 469 -222 c 1,7,-1
 469 -329 l 1,8,9
 389 -367 389 -367 339 -367 c 0,10,11
 249 -367 249 -367 195.5 -316 c 128,-1,12
 142 -265 142 -265 142 -183 c 128,-1,13
 142 -101 142 -101 205 0 c 1,0,-1
EndSplineSet
EndChar

StartChar: tilde
Encoding: 732 732 276
Width: 610
Flags: W
LayerCount: 2
Fore
SplineSet
-11 1000 m 1,0,1
 6.28048780488 1218 6.28048780488 1218 182 1218 c 0,2,3
 227 1218 227 1218 326.5 1181.5 c 128,-1,4
 426 1145 426 1145 461 1145 c 0,5,6
 525 1145 525 1145 541 1213 c 1,7,-1
 622 1213 l 1,8,9
 614 1109 614 1109 566 1050 c 128,-1,10
 518 991 518 991 444.5 991.5 c 128,-1,11
 371 992 371 992 275.5 1028.5 c 128,-1,12
 180 1065 180 1065 142 1065 c 0,13,14
 84 1065 84 1065 72 1000 c 1,15,-1
 -11 1000 l 1,0,1
EndSplineSet
EndChar

StartChar: hungarumlaut
Encoding: 733 733 277
Width: 610
Flags: W
LayerCount: 2
Fore
SplineSet
298 935 m 1,0,-1
 392 1218 l 1,1,-1
 590 1218 l 1,2,-1
 397 935 l 1,3,-1
 298 935 l 1,0,-1
26 935 m 1,4,-1
 121 1218 l 1,5,-1
 318 1218 l 1,6,-1
 126 935 l 1,7,-1
 26 935 l 1,4,-1
EndSplineSet
EndChar

StartChar: uni0307
Encoding: 775 775 278
Width: 556
Flags: W
LayerCount: 2
Fore
SplineSet
279 1170 m 0,0,1
 342 1170 342 1170 366 1115 c 0,2,3
 373 1098 373 1098 373 1080 c 0,4,5
 374 1020 374 1020 316 995 c 0,6,7
 300 988 300 988 270 988 c 0,8,9
 240 988 240 988 212 1015 c 128,-1,10
 184 1042 184 1042 184 1080 c 0,11,12
 183 1118 183 1118 211 1144 c 128,-1,13
 239 1170 239 1170 279 1170 c 0,0,1
EndSplineSet
EndChar

StartChar: uni030F
Encoding: 783 783 279
Width: 610
Flags: W
LayerCount: 2
Fore
SplineSet
188 935 m 1,0,-1
 -3 1218 l 1,1,-1
 194 1218 l 1,2,-1
 288 935 l 1,3,-1
 188 935 l 1,0,-1
461 935 m 1,4,-1
 268 1218 l 1,5,-1
 466 1218 l 1,6,-1
 560 935 l 1,7,-1
 461 935 l 1,4,-1
EndSplineSet
EndChar

StartChar: uni0311
Encoding: 785 785 280
Width: 607
Flags: W
LayerCount: 2
Fore
SplineSet
304 1100 m 0,0,1
 172 1100 172 1100 150 978 c 1,2,-1
 35 978 l 1,3,4
 44 1077 44 1077 118.5 1137.5 c 128,-1,5
 193 1198 193 1198 303.5 1198 c 0,6,7
 414 1198 414 1198 488 1137.5 c 128,-1,8
 562 1077 562 1077 572 978 c 1,9,-1
 457 978 l 1,10,11
 448 1037 448 1037 407 1068.5 c 128,-1,12
 366 1100 366 1100 304 1100 c 0,0,1
EndSplineSet
EndChar

StartChar: uni0326
Encoding: 806 806 281
Width: 576
Flags: W
LayerCount: 2
Fore
SplineSet
157 -69 m 1,0,-1
 378 -69 l 1,1,-1
 378 -289 l 1,2,3
 376 -472 376 -472 260 -518 c 0,4,5
 218 -535 218 -535 157 -536 c 1,6,-1
 157 -444 l 1,7,8
 216 -432 216 -432 241.5 -398 c 128,-1,9
 267 -364 267 -364 267 -289 c 1,10,-1
 157 -289 l 1,11,-1
 157 -69 l 1,0,-1
EndSplineSet
EndChar

StartChar: pi
Encoding: 960 960 282
Width: 1073
Flags: W
LayerCount: 2
Fore
SplineSet
813 764 m 1,0,-1
 808 512 l 1,1,-1
 806 361 l 2,2,3
 804 282 804 282 804 215.5 c 0,4,5
 804 98 804 98 899 98 c 0,6,7
 925 98 925 98 969 113 c 1,8,-1
 969 28 l 1,9,10
 920 -14 920 -14 840 -14 c 0,11,12
 670 -14 670 -14 670 191 c 0,13,14
 670 338 670 338 709 764 c 1,15,-1
 395 764 l 1,16,-1
 372 290 l 2,17,18
 364 142 364 142 312 71 c 128,-1,19
 260 0 260 0 146 0 c 2,20,-1
 71 0 l 1,21,-1
 71 79 l 1,22,23
 211 79 211 79 241 332 c 0,24,25
 253 439 253 439 266 547.5 c 128,-1,26
 279 656 279 656 290 764 c 1,27,-1
 230 764 l 2,28,29
 144 764 144 764 132 658 c 1,30,-1
 53 658 l 1,31,32
 53 836 53 836 155 892 c 1,33,34
 191 913 191 913 243 912 c 1,35,-1
 1000 912 l 1,36,-1
 1000 764 l 1,37,-1
 813 764 l 1,0,-1
EndSplineSet
EndChar

StartChar: endash
Encoding: 8211 8211 283
Width: 909
Flags: W
LayerCount: 2
Fore
SplineSet
909 504 m 1,0,-1
 909 383 l 1,1,-1
 0 383 l 1,2,-1
 0 504 l 1,3,-1
 909 504 l 1,0,-1
EndSplineSet
EndChar

StartChar: emdash
Encoding: 8212 8212 284
Width: 1714
Flags: W
LayerCount: 2
Fore
SplineSet
1714 504 m 1,0,-1
 1714 383 l 1,1,-1
 0 383 l 1,2,-1
 0 504 l 1,3,-1
 1714 504 l 1,0,-1
EndSplineSet
EndChar

StartChar: quoteleft
Encoding: 8216 8216 285
Width: 397
Flags: W
LayerCount: 2
Fore
SplineSet
311 752 m 1,0,-1
 85 752 l 1,1,-1
 85 971 l 2,2,3
 85 1159 85 1159 204 1202 c 1,4,5
 248 1219 248 1219 311 1218 c 1,6,-1
 311 1127 l 1,7,8
 245 1113 245 1113 220.5 1079.5 c 128,-1,9
 196 1046 196 1046 196 971 c 1,10,-1
 311 971 l 1,11,-1
 311 752 l 1,0,-1
EndSplineSet
EndChar

StartChar: quoteright
Encoding: 8217 8217 286
Width: 379
Flags: W
LayerCount: 2
Fore
SplineSet
85 1199 m 1,0,-1
 311 1199 l 1,1,-1
 311 980 l 1,2,3
 310 792 310 792 191 749 c 1,4,5
 148 732 148 732 85 733 c 1,6,-1
 85 824 l 1,7,8
 152 838 152 838 177 871.5 c 128,-1,9
 202 905 202 905 201 980 c 1,10,-1
 85 980 l 1,11,-1
 85 1199 l 1,0,-1
EndSplineSet
EndChar

StartChar: quotesinglbase
Encoding: 8218 8218 287
Width: 405
Flags: W
LayerCount: 2
Fore
SplineSet
85 219 m 1,0,-1
 311 219 l 1,1,-1
 311 0 l 1,2,3
 310 -187 310 -187 191 -231 c 1,4,5
 148 -248 148 -248 85 -246 c 1,6,-1
 85 -156 l 1,7,8
 152 -141 152 -141 177 -108 c 128,-1,9
 202 -75 202 -75 201 0 c 1,10,-1
 85 0 l 1,11,-1
 85 219 l 1,0,-1
EndSplineSet
EndChar

StartChar: quotedblleft
Encoding: 8220 8220 288
Width: 749
Flags: W
LayerCount: 2
Fore
SplineSet
657 752 m 1,0,-1
 432 752 l 1,1,-1
 432 971 l 1,2,3
 433 1159 433 1159 551 1202 c 0,4,5
 595 1219 595 1219 657 1218 c 1,6,-1
 657 1127 l 1,7,8
 591 1113 591 1113 566 1079.5 c 128,-1,9
 541 1046 541 1046 542 971 c 1,10,-1
 657 971 l 1,11,-1
 657 752 l 1,0,-1
311 752 m 1,12,-1
 85 752 l 1,13,-1
 85 971 l 2,14,15
 85 1159 85 1159 204 1202 c 1,16,17
 248 1219 248 1219 311 1218 c 1,18,-1
 311 1127 l 1,19,20
 245 1113 245 1113 220.5 1079.5 c 128,-1,21
 196 1046 196 1046 196 971 c 1,22,-1
 311 971 l 1,23,-1
 311 752 l 1,12,-1
EndSplineSet
EndChar

StartChar: quotedblright
Encoding: 8221 8221 289
Width: 732
Flags: W
LayerCount: 2
Fore
SplineSet
85 1199 m 1,0,-1
 311 1199 l 1,1,-1
 311 980 l 1,2,3
 310 792 310 792 191 749 c 1,4,5
 148 732 148 732 85 733 c 1,6,-1
 85 824 l 1,7,8
 152 838 152 838 177 871.5 c 128,-1,9
 202 905 202 905 201 980 c 1,10,-1
 85 980 l 1,11,-1
 85 1199 l 1,0,-1
432 1199 m 1,12,-1
 657 1199 l 1,13,-1
 657 980 l 2,14,15
 657 792 657 792 539 749 c 0,16,17
 495 732 495 732 432 733 c 1,18,-1
 432 824 l 1,19,20
 497 838 497 838 522 871.5 c 128,-1,21
 547 905 547 905 547 980 c 1,22,-1
 432 980 l 1,23,-1
 432 1199 l 1,12,-1
EndSplineSet
EndChar

StartChar: quotedblbase
Encoding: 8222 8222 290
Width: 816
Flags: W
LayerCount: 2
Fore
SplineSet
500 219 m 1,0,-1
 726 219 l 1,1,-1
 726 0 l 2,2,3
 726 -187 726 -187 607 -231 c 1,4,5
 564 -248 564 -248 500 -246 c 1,6,-1
 500 -156 l 1,7,8
 566 -141 566 -141 591 -108 c 128,-1,9
 616 -75 616 -75 616 0 c 1,10,-1
 500 0 l 1,11,-1
 500 219 l 1,0,-1
85 219 m 1,12,-1
 311 219 l 1,13,-1
 311 0 l 1,14,15
 310 -187 310 -187 191 -231 c 1,16,17
 148 -248 148 -248 85 -246 c 1,18,-1
 85 -156 l 1,19,20
 152 -141 152 -141 177 -108 c 128,-1,21
 202 -75 202 -75 201 0 c 1,22,-1
 85 0 l 1,23,-1
 85 219 l 1,12,-1
EndSplineSet
EndChar

StartChar: dagger
Encoding: 8224 8224 291
Width: 955
Flags: W
LayerCount: 2
Fore
SplineSet
433 -236 m 1,0,1
 433 310 433 310 356 803 c 1,2,-1
 433 1044 l 1,3,-1
 75 984 l 1,4,-1
 75 1167 l 1,5,-1
 433 1112 l 1,6,-1
 376 1618 l 1,7,-1
 581 1618 l 1,8,-1
 522 1112 l 1,9,-1
 880 1167 l 1,10,-1
 880 984 l 1,11,-1
 522 1044 l 1,12,-1
 603 803 l 1,13,14
 522 316 522 316 522 -236 c 1,15,-1
 433 -236 l 1,0,1
EndSplineSet
EndChar

StartChar: daggerdbl
Encoding: 8225 8225 292
Width: 955
Flags: W
LayerCount: 2
Fore
SplineSet
506 695 m 1,0,1
 529 517 529 517 603 473 c 1,2,-1
 522 232 l 1,3,-1
 880 292 l 1,4,-1
 880 108 l 1,5,-1
 522 164 l 1,6,-1
 581 -236 l 1,7,-1
 376 -236 l 1,8,-1
 433 164 l 1,9,-1
 75 108 l 1,10,-1
 75 292 l 1,11,-1
 433 232 l 1,12,-1
 356 473 l 1,13,14
 426 525 426 525 447 697 c 1,15,16
 425 876 425 876 356 909 c 1,17,-1
 433 1150 l 1,18,-1
 75 1091 l 1,19,-1
 75 1274 l 1,20,-1
 433 1218 l 1,21,-1
 376 1618 l 1,22,-1
 581 1618 l 1,23,-1
 522 1218 l 1,24,-1
 880 1274 l 1,25,-1
 880 1091 l 1,26,-1
 522 1150 l 1,27,-1
 603 909 l 1,28,29
 529 865 529 865 506 695 c 1,0,1
EndSplineSet
EndChar

StartChar: bullet
Encoding: 8226 8226 293
Width: 581
Flags: W
LayerCount: 2
Fore
SplineSet
291 784 m 256,0,1
 378 784 378 784 439 726 c 128,-1,2
 500 668 500 668 500 584.5 c 0,3,4
 500 501 500 501 439 442 c 128,-1,5
 378 383 378 383 291 383 c 256,6,7
 204 383 204 383 143.5 441 c 128,-1,8
 83 499 83 499 83 584.5 c 0,9,10
 83 670 83 670 143.5 727 c 128,-1,11
 204 784 204 784 291 784 c 256,0,1
EndSplineSet
EndChar

StartChar: ellipsis
Encoding: 8230 8230 294
Width: 1292
Flags: W
LayerCount: 2
Fore
SplineSet
326 219 m 1,0,-1
 326 0 l 1,1,-1
 89 0 l 1,2,-1
 89 219 l 1,3,-1
 326 219 l 1,0,-1
756 219 m 1,4,-1
 756 0 l 1,5,-1
 520 0 l 1,6,-1
 520 219 l 1,7,-1
 756 219 l 1,4,-1
1187 219 m 1,8,-1
 1187 0 l 1,9,-1
 951 0 l 1,10,-1
 951 219 l 1,11,-1
 1187 219 l 1,8,-1
EndSplineSet
EndChar

StartChar: guilsinglleft
Encoding: 8249 8249 295
Width: 709
Flags: W
LayerCount: 2
Fore
SplineSet
138 609 m 1,0,-1
 464 980 l 1,1,-1
 571 980 l 1,2,-1
 356 575 l 1,3,-1
 571 171 l 1,4,-1
 464 171 l 1,5,-1
 138 541 l 1,6,-1
 138 609 l 1,0,-1
EndSplineSet
EndChar

StartChar: guilsinglright
Encoding: 8250 8250 296
Width: 709
Flags: W
LayerCount: 2
Fore
SplineSet
573 541 m 1,0,-1
 248 171 l 1,1,-1
 140 171 l 1,2,-1
 356 575 l 1,3,-1
 140 980 l 1,4,-1
 248 980 l 1,5,-1
 573 609 l 1,6,-1
 573 541 l 1,0,-1
EndSplineSet
EndChar

StartChar: fraction
Encoding: 8260 8260 297
Width: 825
Flags: W
LayerCount: 2
Fore
SplineSet
586 1218 m 1,0,-1
 720 1218 l 1,1,-1
 268 -19 l 1,2,-1
 134 -19 l 1,3,-1
 586 1218 l 1,0,-1
EndSplineSet
EndChar

StartChar: uni2074
Encoding: 8308 8308 298
Width: 910
Flags: W
LayerCount: 2
Fore
SplineSet
742 98 m 1,0,-1
 742 0 l 1,1,-1
 360 0 l 1,2,-1
 360 98 l 1,3,-1
 497 98 l 1,4,-1
 497 264 l 1,5,-1
 111 264 l 1,6,-1
 111 366 l 1,7,-1
 500 968 l 1,8,-1
 617 968 l 1,9,-1
 617 366 l 1,10,-1
 776 366 l 1,11,-1
 776 264 l 1,12,-1
 617 264 l 1,13,-1
 617 98 l 1,14,-1
 742 98 l 1,0,-1
497 366 m 1,15,-1
 497 796 l 1,16,-1
 233 366 l 1,17,-1
 497 366 l 1,15,-1
EndSplineSet
EndChar

StartChar: Euro
Encoding: 8364 8364 299
Width: 1137
Flags: W
LayerCount: 2
Fore
SplineSet
371 447 m 1,0,1
 488 188 488 188 680 121 c 1,2,3
 836 121 836 121 915 264 c 0,4,5
 944 316 944 316 960 393 c 1,6,-1
 1100 319 l 1,7,8
 1040 132 1040 132 909 48 c 0,9,10
 805 -19 805 -19 688 -19 c 0,11,12
 479 -19 479 -19 350.5 106.5 c 128,-1,13
 222 232 222 232 187 447 c 1,14,-1
 31 447 l 1,15,-1
 31 566 l 1,16,-1
 176 566 l 1,17,-1
 176 598 l 2,18,19
 176 641 176 641 180 684 c 1,20,-1
 31 684 l 1,21,-1
 31 802 l 1,22,-1
 200 802 l 1,23,24
 268 1091 268 1091 489 1186 c 0,25,26
 564 1218 564 1218 655 1218 c 0,27,28
 823 1218 823 1218 933 1084 c 1,29,-1
 933 1199 l 1,30,-1
 1068 1199 l 1,31,-1
 1068 836 l 1,32,-1
 938 836 l 1,33,34
 813 1036 813 1036 674 1078 c 1,35,36
 513 1078 513 1078 426 915 c 0,37,38
 399 864 399 864 384 802 c 1,39,-1
 643 802 l 1,40,-1
 643 684 l 1,41,-1
 363 684 l 1,42,43
 360 645 360 645 360 603 c 2,44,-1
 360 566 l 1,45,-1
 643 566 l 1,46,-1
 643 447 l 1,47,-1
 371 447 l 1,0,1
EndSplineSet
EndChar

StartChar: trademark
Encoding: 8482 8482 300
Width: 2065
Flags: W
LayerCount: 2
Fore
SplineSet
822 1199 m 1,0,-1
 822 934 l 1,1,-1
 712 934 l 1,2,-1
 712 1099 l 1,3,-1
 545 1099 l 1,4,-1
 545 502 l 1,5,-1
 670 502 l 1,6,-1
 670 404 l 1,7,-1
 287 404 l 1,8,-1
 287 502 l 1,9,-1
 412 502 l 1,10,-1
 412 1099 l 1,11,-1
 240 1099 l 1,12,-1
 240 934 l 1,13,-1
 132 934 l 1,14,-1
 132 1199 l 1,15,-1
 822 1199 l 1,0,-1
989 1099 m 1,16,-1
 883 1099 l 1,17,-1
 883 1199 l 1,18,-1
 1173 1199 l 1,19,-1
 1403 659 l 1,20,-1
 1637 1199 l 1,21,-1
 1930 1199 l 1,22,-1
 1930 1099 l 1,23,-1
 1825 1099 l 1,24,-1
 1825 502 l 1,25,-1
 1930 502 l 1,26,-1
 1930 404 l 1,27,-1
 1609 404 l 1,28,-1
 1609 502 l 1,29,-1
 1705 502 l 1,30,-1
 1705 1055 l 1,31,-1
 1422 404 l 1,32,-1
 1381 404 l 1,33,-1
 1099 1052 l 1,34,-1
 1099 502 l 1,35,-1
 1196 502 l 1,36,-1
 1196 404 l 1,37,-1
 883 404 l 1,38,-1
 883 502 l 1,39,-1
 989 502 l 1,40,-1
 989 1099 l 1,16,-1
EndSplineSet
EndChar

StartChar: partialdiff
Encoding: 8706 8706 301
Width: 849
Flags: W
LayerCount: 2
Fore
SplineSet
326 -17 m 0,0,1
 52.875 -17 52.875 -17 55 306 c 0,2,3
 56 458 56 458 150 607 c 1,4,5
 218 717 218 717 335 763 c 0,6,7
 395 787 395 787 470 787 c 0,8,9
 614 787 614 787 679 671 c 1,10,11
 682 673 682 673 682 733 c 2,12,-1
 682 747 l 2,13,14
 682 1009 682 1009 553 1099 c 0,15,16
 512 1128 512 1128 446 1128 c 128,-1,17
 380 1128 380 1128 338 1082.5 c 128,-1,18
 296 1037 296 1037 296 969 c 1,19,20
 172 969 172 969 172 1062 c 0,21,22
 172 1135 172 1135 236 1182 c 128,-1,23
 300 1229 300 1229 404 1229 c 0,24,25
 590 1229 590 1229 683 1107 c 128,-1,26
 776 985 776 985 776 791 c 0,27,28
 776 464 776 464 677 248 c 1,29,30
 557 -17 557 -17 326 -17 c 0,0,1
232 265 m 1,31,32
 232 82 232 82 379 82 c 1,33,34
 479 81 479 81 556.5 215 c 128,-1,35
 634 349 634 349 658 532 c 1,36,37
 632 643 632 643 551 682 c 0,38,39
 524 695 524 695 486 695 c 128,-1,40
 448 695 448 695 411 674 c 0,41,42
 312 619 312 619 260 447 c 1,43,44
 233 354 233 354 232 265 c 1,31,32
EndSplineSet
EndChar

StartChar: uni2206
Encoding: 8710 8710 302
Width: 1036
Flags: W
LayerCount: 2
Fore
SplineSet
981 0 m 1,0,-1
 50 0 l 1,1,-1
 50 95 l 1,2,-1
 446 1213 l 1,3,-1
 600 1213 l 1,4,-1
 981 106 l 1,5,-1
 981 0 l 1,0,-1
782 122 m 1,6,7
 729 286 729 286 674.5 450 c 128,-1,8
 620 614 620 614 581 733 c 128,-1,9
 542 852 542 852 521.5 912 c 128,-1,10
 501 972 501 972 487 1033 c 1,11,12
 464 931 464 931 414 791 c 2,13,-1
 178 122 l 1,14,-1
 782 122 l 1,6,7
EndSplineSet
EndChar

StartChar: product
Encoding: 8719 8719 303
Width: 1351
Flags: W
LayerCount: 2
Fore
SplineSet
1281 1199 m 1,0,-1
 1281 1120 l 1,1,-1
 1255 1120 l 1,2,3
 1189 1121 1189 1121 1166 1104 c 0,4,5
 1122 1073 1122 1073 1122 1003 c 2,6,-1
 1122 208 l 1,7,8
 1125 114 1125 114 1204 102 c 0,9,10
 1228 98 1228 98 1255 98 c 2,11,-1
 1281 98 l 1,12,-1
 1281 19 l 1,13,-1
 782 19 l 1,14,-1
 782 98 l 1,15,-1
 808 98 l 2,16,17
 875 98 875 98 898 114 c 0,18,19
 942 145 942 145 942 216 c 2,20,-1
 942 1107 l 1,21,-1
 401 1107 l 1,22,-1
 401 216 l 2,23,24
 401 114 401 114 485 102 c 0,25,26
 510 98 510 98 537 98 c 2,27,-1
 563 98 l 1,28,-1
 563 19 l 1,29,-1
 63 19 l 1,30,-1
 63 98 l 1,31,-1
 88 98 l 2,32,33
 156 98 156 98 179 114 c 0,34,35
 224 145 224 145 224 216 c 2,36,-1
 224 1010 l 1,37,38
 220 1104 220 1104 139 1117 c 0,39,40
 115 1121 115 1121 88 1120 c 1,41,-1
 63 1120 l 1,42,-1
 63 1199 l 1,43,-1
 1281 1199 l 1,0,-1
EndSplineSet
EndChar

StartChar: summation
Encoding: 8721 8721 304
Width: 1177
Flags: W
LayerCount: 2
Fore
SplineSet
804 -22 m 2,0,1
 938 -22 938 -22 957 134 c 1,2,-1
 964 188 l 1,3,-1
 1060 188 l 1,4,-1
 1051 -186 l 1,5,-1
 64 -186 l 1,6,-1
 64 -100 l 1,7,-1
 492 556 l 1,8,-1
 102 1129 l 1,9,-1
 102 1199 l 1,10,-1
 978 1199 l 1,11,-1
 986 895 l 1,12,-1
 890 895 l 1,13,-1
 882 972 l 1,14,15
 855 1104 855 1104 737 1104 c 2,16,-1
 317 1104 l 1,17,-1
 640 614 l 1,18,-1
 640 553 l 1,19,-1
 262 -22 l 1,20,-1
 804 -22 l 2,0,1
EndSplineSet
EndChar

StartChar: minus
Encoding: 8722 8722 305
Width: 968
Flags: W
LayerCount: 2
Fore
SplineSet
911 876 m 1,0,-1
 911 753 l 1,1,-1
 58 753 l 1,2,-1
 58 876 l 1,3,-1
 911 876 l 1,0,-1
EndSplineSet
EndChar

StartChar: radical
Encoding: 8730 8730 306
Width: 713
Flags: W
LayerCount: 2
Fore
SplineSet
432 0 m 1,0,-1
 340 0 l 1,1,-1
 151 534 l 1,2,-1
 41 534 l 1,3,-1
 41 613 l 1,4,-1
 238 613 l 1,5,-1
 395 166 l 1,6,-1
 708 1199 l 1,7,-1
 798 1199 l 1,8,-1
 432 0 l 1,0,-1
EndSplineSet
EndChar

StartChar: infinity
Encoding: 8734 8734 307
Width: 1506
Flags: W
LayerCount: 2
Fore
SplineSet
409 1029 m 1,0,1
 632 1029 632 1029 766 775 c 1,2,3
 898 1022 898 1022 1103 1022 c 0,4,5
 1248 1022 1248 1022 1339.5 910.5 c 128,-1,6
 1431 799 1431 799 1431 622 c 128,-1,7
 1431 445 1431 445 1338.5 327 c 128,-1,8
 1246 209 1246 209 1101 209 c 0,9,10
 884 209 884 209 739 469 c 1,11,12
 607 215 607 215 409 215 c 0,13,14
 262 215 262 215 168.5 325 c 128,-1,15
 75 435 75 435 75 616 c 128,-1,16
 75 797 75 797 168 913.5 c 128,-1,17
 261 1030 261 1030 409 1029 c 1,0,1
829 616 m 1,18,19
 888 476 888 476 952 406.5 c 128,-1,20
 1016 337 1016 337 1108 337 c 128,-1,21
 1200 337 1200 337 1257.5 416.5 c 128,-1,22
 1315 496 1315 496 1315 616 c 0,23,24
 1315 736 1315 736 1255.5 815 c 128,-1,25
 1196 894 1196 894 1108.5 894 c 128,-1,26
 1021 894 1021 894 957 825 c 128,-1,27
 893 756 893 756 829 616 c 1,18,19
312 366 m 0,28,29
 352 343 352 343 416 343 c 0,30,31
 553 343 553 343 677 622 c 1,32,33
 620 760 620 760 554 830.5 c 128,-1,34
 488 901 488 901 398 901 c 128,-1,35
 308 901 308 901 250.5 819.5 c 128,-1,36
 193 738 193 738 193 620 c 0,37,38
 193 432 193 432 312 366 c 0,28,29
EndSplineSet
EndChar

StartChar: integral
Encoding: 8747 8747 308
Width: 918
Flags: W
LayerCount: 2
Fore
SplineSet
669 1218 m 0,0,1
 873 1218 873 1218 873 1094 c 0,2,3
 873 996 873 996 740 996 c 1,4,5
 740 1063 740 1063 730 1086 c 0,6,7
 710 1130 710 1130 666.5 1130 c 128,-1,8
 623 1130 623 1130 601 1092.5 c 0,9,10
 541 990.227272727 541 990.227272727 541 593.891414141 c 128,-1,11
 541 197.555555556 541 197.555555556 528 69 c 0,12,13
 509 -128 509 -128 441 -230.5 c 128,-1,14
 373 -333 373 -333 225 -333 c 0,15,16
 32 -333 32 -333 32 -209 c 0,17,18
 32 -110 32 -110 163 -110 c 1,19,20
 164 -210 164 -210 202 -235 c 0,21,22
 218 -246 218 -246 255 -246 c 0,23,24
 331 -246 331 -246 349 -99 c 1,25,26
 364 4 364 4 363.5 309 c 128,-1,27
 363 614 363 614 373 756 c 0,28,29
 404 1217 404 1217 669 1218 c 0,0,1
EndSplineSet
EndChar

StartChar: approxequal
Encoding: 8776 8776 309
Width: 1195
Flags: W
LayerCount: 2
Fore
SplineSet
561 935 m 0,0,1
 492 997 492 997 455.5 1022.5 c 128,-1,2
 419 1048 419 1048 367 1048 c 0,3,4
 265 1048 265 1048 242 801 c 1,5,-1
 118 801 l 1,6,7
 133 970 133 970 170.5 1038.5 c 0,8,9
 244.131386861 1173 244.131386861 1173 364 1173 c 0,10,11
 448 1173 448 1173 513 1133 c 128,-1,12
 578 1093 578 1093 640 1036 c 128,-1,13
 702 979 702 979 739.5 953 c 128,-1,14
 777 927 777 927 827 927 c 128,-1,15
 877 927 877 927 905 991 c 128,-1,16
 933 1055 933 1055 947 1173 c 1,17,-1
 1075 1173 l 1,18,19
 1057 1005 1057 1005 1018 936 c 0,20,21
 942 801 942 801 824.5 801 c 128,-1,22
 707 801 707 801 561 935 c 0,0,1
561 482 m 0,23,24
 468 567 468 567 434 580.5 c 128,-1,25
 400 594 400 594 376 594 c 0,26,27
 314 594 314 594 284 533.5 c 128,-1,28
 254 473 254 473 242 347 c 1,29,-1
 118 347 l 1,30,31
 133 517 133 517 170.5 585 c 0,32,33
 244.948529412 720 244.948529412 720 364 720 c 0,34,35
 448 720 448 720 507 683 c 128,-1,36
 566 646 566 646 637 583.5 c 128,-1,37
 708 521 708 521 742.5 497 c 128,-1,38
 777 473 777 473 827 473 c 128,-1,39
 877 473 877 473 905 537 c 128,-1,40
 933 601 933 601 947 720 c 1,41,-1
 1075 720 l 1,42,43
 1057 551 1057 551 1018 483 c 0,44,45
 942 347 942 347 824.5 347 c 128,-1,46
 707 347 707 347 561 482 c 0,23,24
EndSplineSet
EndChar

StartChar: notequal
Encoding: 8800 8800 310
Width: 1191
Flags: W
LayerCount: 2
Fore
SplineSet
603 1033 m 1,0,-1
 662 1260 l 1,1,-1
 786 1260 l 1,2,-1
 726 1033 l 1,3,-1
 1052 1033 l 1,4,-1
 1052 907 l 1,5,-1
 695 907 l 1,6,-1
 618 614 l 1,7,-1
 1052 614 l 1,8,-1
 1052 488 l 1,9,-1
 586 488 l 1,10,-1
 528 260 l 1,11,-1
 402 260 l 1,12,-1
 462 488 l 1,13,-1
 138 488 l 1,14,-1
 138 614 l 1,15,-1
 494 614 l 1,16,-1
 571 907 l 1,17,-1
 138 907 l 1,18,-1
 138 1033 l 1,19,-1
 603 1033 l 1,0,-1
EndSplineSet
EndChar

StartChar: lessequal
Encoding: 8804 8804 311
Width: 1191
Flags: W
LayerCount: 2
Fore
SplineSet
138 724 m 1,0,-1
 138 799 l 1,1,-1
 1052 1291 l 1,2,-1
 1052 1148 l 1,3,-1
 337 760 l 1,4,-1
 1052 376 l 1,5,-1
 1052 234 l 1,6,-1
 138 724 l 1,0,-1
1052 0 m 1,7,-1
 138 0 l 1,8,-1
 138 126 l 1,9,-1
 1052 126 l 1,10,-1
 1052 0 l 1,7,-1
EndSplineSet
EndChar

StartChar: greaterequal
Encoding: 8805 8805 312
Width: 1191
Flags: W
LayerCount: 2
Fore
SplineSet
138 234 m 1,0,-1
 138 376 l 1,1,-1
 854 760 l 1,2,-1
 138 1148 l 1,3,-1
 138 1291 l 1,4,-1
 1052 799 l 1,5,-1
 1052 724 l 1,6,-1
 138 234 l 1,0,-1
1052 0 m 1,7,-1
 138 0 l 1,8,-1
 138 126 l 1,9,-1
 1052 126 l 1,10,-1
 1052 0 l 1,7,-1
EndSplineSet
EndChar

StartChar: lozenge
Encoding: 9674 9674 313
Width: 1167
Flags: W
LayerCount: 2
Fore
SplineSet
626 0 m 1,0,-1
 541 0 l 1,1,-1
 63 758 l 1,2,-1
 541 1520 l 1,3,-1
 626 1520 l 1,4,-1
 1103 760 l 1,5,-1
 626 0 l 1,0,-1
586 1361 m 1,6,-1
 217 760 l 1,7,-1
 586 153 l 1,8,-1
 950 760 l 1,9,-1
 586 1361 l 1,6,-1
EndSplineSet
EndChar

StartChar: uniFB01
Encoding: 64257 64257 314
Width: 1070
Flags: W
LayerCount: 2
Fore
SplineSet
433 1095 m 0,0,1
 349 1095 349 1095 349 971 c 2,2,-1
 349 837 l 1,3,-1
 895 837 l 1,4,-1
 895 121 l 1,5,-1
 1037 121 l 1,6,-1
 1037 0 l 1,7,-1
 600 0 l 1,8,-1
 600 121 l 1,9,-1
 740 121 l 1,10,-1
 740 717 l 1,11,-1
 349 717 l 1,12,-1
 349 121 l 1,13,-1
 518 121 l 1,14,-1
 518 0 l 1,15,-1
 68 0 l 1,16,-1
 68 121 l 1,17,-1
 192 121 l 1,18,-1
 192 717 l 1,19,-1
 58 717 l 1,20,-1
 58 837 l 1,21,-1
 192 837 l 1,22,-1
 192 981 l 2,23,24
 192 1154 192 1154 336 1202 c 0,25,26
 428 1232 428 1232 512 1206 c 0,27,28
 549 1195 549 1195 577 1169 c 1,29,30
 641 1113 641 1113 641 1002 c 1,31,-1
 505 1002 l 1,32,33
 505 1075 505 1075 456 1091 c 0,34,35
 443 1095 443 1095 433 1095 c 0,0,1
722 1109 m 0,36,37
 722 1169 722 1169 780 1192 c 1,38,39
 841.460461285 1213.69192751 841.460461285 1213.69192751 876.730230643 1180.34596376 c 128,-1,40
 912 1147 912 1147 912 1108.5 c 128,-1,41
 912 1070 912 1070 884.5 1044 c 128,-1,42
 857 1018 857 1018 816 1018 c 128,-1,43
 775 1018 775 1018 748.5 1044 c 128,-1,44
 722 1070 722 1070 722 1109 c 0,36,37
EndSplineSet
EndChar

StartChar: uniFB02
Encoding: 64258 64258 315
Width: 1049
Flags: W
LayerCount: 2
Fore
SplineSet
583 0 m 1,0,-1
 583 121 l 1,1,-1
 723 121 l 1,2,-1
 723 1078 l 1,3,-1
 433 1078 l 2,4,5
 391 1078 391 1078 378 1065 c 1,6,7
 349 1039 349 1039 349 971 c 2,8,-1
 349 837 l 1,9,-1
 529 837 l 1,10,-1
 529 717 l 1,11,-1
 349 717 l 1,12,-1
 349 121 l 1,13,-1
 491 121 l 1,14,-1
 491 0 l 1,15,-1
 68 0 l 1,16,-1
 68 121 l 1,17,-1
 192 121 l 1,18,-1
 192 717 l 1,19,-1
 58 717 l 1,20,-1
 58 837 l 1,21,-1
 192 837 l 1,22,-1
 192 981 l 2,23,24
 192 1199 192 1199 435 1199 c 2,25,-1
 878 1199 l 1,26,-1
 878 121 l 1,27,-1
 1016 121 l 1,28,-1
 1016 0 l 1,29,-1
 583 0 l 1,0,-1
EndSplineSet
EndChar

StartChar: glyph316
Encoding: 65539 -1 316
Width: 617
Flags: W
LayerCount: 2
Fore
SplineSet
60 932 m 1,0,-1
 162 1218 l 1,1,-1
 448 1218 l 1,2,-1
 556 932 l 1,3,-1
 402 932 l 1,4,-1
 306 1171 l 1,5,-1
 209 932 l 1,6,-1
 60 932 l 1,0,-1
EndSplineSet
EndChar

StartChar: glyph317
Encoding: 65540 -1 317
Width: 447
Flags: W
LayerCount: 2
Fore
SplineSet
105 581 m 1,0,-1
 341 581 l 1,1,-1
 341 362 l 2,2,3
 341 175 341 175 216 131 c 1,4,5
 171 114 171 114 105 115 c 1,6,-1
 105 206 l 1,7,8
 177 220 177 220 204 254.5 c 128,-1,9
 231 289 231 289 231 362 c 1,10,-1
 105 362 l 1,11,-1
 105 581 l 1,0,-1
EndSplineSet
EndChar

StartChar: glyph320
Encoding: 65543 -1 320
Width: 584
Flags: W
LayerCount: 2
Fore
SplineSet
304 951 m 1,0,-1
 109 1218 l 1,1,-1
 324 1218 l 1,2,-1
 427 951 l 1,3,-1
 304 951 l 1,0,-1
EndSplineSet
EndChar

StartChar: glyph321
Encoding: 65544 -1 321
Width: 584
Flags: W
LayerCount: 2
Fore
SplineSet
172 951 m 1,0,-1
 275 1218 l 1,1,-1
 490 1218 l 1,2,-1
 295 951 l 1,3,-1
 172 951 l 1,0,-1
EndSplineSet
EndChar

StartChar: glyph322
Encoding: 65545 -1 322
Width: 595
Flags: W
LayerCount: 2
Fore
SplineSet
544 1145 m 1,0,-1
 544 986 l 1,1,-1
 386 986 l 1,2,-1
 386 1145 l 1,3,-1
 544 1145 l 1,0,-1
220 1145 m 1,4,-1
 220 986 l 1,5,-1
 60 986 l 1,6,-1
 60 1145 l 1,7,-1
 220 1145 l 1,4,-1
EndSplineSet
EndChar

StartChar: glyph323
Encoding: 65546 -1 323
Width: 617
Flags: W
LayerCount: 2
Fore
SplineSet
151 1218 m 1,0,-1
 311 1058 l 1,1,-1
 469 1218 l 1,2,-1
 577 1218 l 1,3,-1
 412 948 l 1,4,-1
 208 948 l 1,5,-1
 40 1218 l 1,6,-1
 151 1218 l 1,0,-1
EndSplineSet
EndChar

StartChar: glyph324
Encoding: 65547 -1 324
Width: 588
Flags: W
LayerCount: 2
Fore
SplineSet
168.5 1202 m 128,-1,1
 218 1250 218 1250 292.5 1250 c 128,-1,2
 367 1250 367 1250 418 1202 c 128,-1,3
 469 1154 469 1154 469.5 1083.5 c 128,-1,4
 470 1013 470 1013 418 965 c 128,-1,5
 366 917 366 917 292.5 916.5 c 128,-1,6
 219 916 219 916 169 964.5 c 128,-1,7
 119 1013 119 1013 119 1083.5 c 128,-1,0
 119 1154 119 1154 168.5 1202 c 128,-1,1
336 1177 m 1,8,9
 316 1186 316 1186 282.5 1186 c 128,-1,10
 249 1186 249 1186 216.5 1156.5 c 128,-1,11
 184 1127 184 1127 184.5 1083.5 c 128,-1,12
 185 1040 185 1040 216.5 1011 c 128,-1,13
 248 982 248 982 293 981 c 1,14,15
 365 981 365 981 393 1043 c 0,16,17
 401 1062 401 1062 401 1084 c 0,18,19
 401 1152 401 1152 336 1177 c 1,8,9
EndSplineSet
EndChar

StartChar: glyph325
Encoding: 65548 -1 325
Width: 610
Flags: W
LayerCount: 2
Fore
SplineSet
-11 1019 m 1,0,1
 6.38650306748 1237 6.38650306748 1237 182 1237 c 0,2,3
 227 1237 227 1237 326.5 1200.5 c 128,-1,4
 426 1164 426 1164 461 1164 c 0,5,6
 525 1164 525 1164 541 1231 c 1,7,-1
 622 1231 l 1,8,9
 614 1127 614 1127 566 1068.5 c 128,-1,10
 518 1010 518 1010 444.5 1010.5 c 128,-1,11
 371 1011 371 1011 275.5 1047.5 c 128,-1,12
 180 1084 180 1084 142 1084 c 0,13,14
 84 1084 84 1084 72 1019 c 1,15,-1
 -11 1019 l 1,0,1
EndSplineSet
EndChar

StartChar: glyph326
Encoding: 65549 -1 326
Width: 556
Flags: W
LayerCount: 2
Fore
SplineSet
279 1170 m 0,0,1
 342 1170 342 1170 366 1115 c 0,2,3
 373 1098 373 1098 373 1080 c 0,4,5
 374 1020 374 1020 316 995 c 0,6,7
 300 988 300 988 270 988 c 0,8,9
 240 988 240 988 212 1015 c 128,-1,10
 184 1042 184 1042 184 1080 c 0,11,12
 183 1118 183 1118 211 1144 c 128,-1,13
 239 1170 239 1170 279 1170 c 0,0,1
EndSplineSet
EndChar

